<?xml version="1.0" encoding="utf-8"?>
<!-- Generator: Adobe Illustrator 18.0.0, SVG Export Plug-In . SVG Version: 6.00 Build 0)  -->
<!DOCTYPE svg PUBLIC "-//W3C//DTD SVG 1.1//EN" "http://www.w3.org/Graphics/SVG/1.1/DTD/svg11.dtd">
<svg version="1.1" id="Layer_1" xmlns="http://www.w3.org/2000/svg" xmlns:xlink="http://www.w3.org/1999/xlink" x="0px" y="0px"
	 viewBox="0 0 1024 768" enable-background="new 0 0 1024 768" xml:space="preserve">
<g>
	<g>
		<path d="M467.2,490.6V350.4h-25.6v-32.2h25.6c0-42.1,24.4-63.1,73.3-63.1v36.8c-5.8,0-10.6,0.4-14.2,1.2c-3.6,0.8-6.5,2.3-8.6,4.4
			c-2.1,2.1-3.6,4.9-4.4,8.2c-0.8,3.4-1.2,7.5-1.2,12.4h29.4v32.2h-29.4v140.2H467.2z"/>
	</g>
	<path fill="#231F20" d="M738,223.8C479.6-240.7-37.3,570.5,284.6,694.5c251.1,96.7,626.8-122.9,526.3-413.6
		C714,0.5,193.3,55.3,171.7,355.8c-24.1,333.7,436.1,479.1,667.5,290.5c2.2-1.8-0.7-5.6-3.1-4c-186.9,136.3-479.7,88.4-608.3-106.2
		c-114.6-173.4,1.3-358.1,181.3-410.3c185.6-53.8,393.3,39,407.3,245.5c13.5,199.6-185.2,292.5-350,322
		c-105.4,18.8-233.4,4.1-265.1-115.3c-24-90.4,18.3-193.8,62-271.1C371.3,116,592.7,1.6,734.3,226
		C735.7,228.3,739.3,226.2,738,223.8L738,223.8z"/>
</g>
</svg>
