<?xml version="1.0" encoding="utf-8"?>
<!-- Generator: Adobe Illustrator 18.0.0, SVG Export Plug-In . SVG Version: 6.00 Build 0)  -->
<!DOCTYPE svg PUBLIC "-//W3C//DTD SVG 1.1//EN" "http://www.w3.org/Graphics/SVG/1.1/DTD/svg11.dtd">
<svg version="1.1" id="Layer_1" xmlns="http://www.w3.org/2000/svg" xmlns:xlink="http://www.w3.org/1999/xlink" x="0px" y="0px"
	 viewBox="0 0 1024 768" enable-background="new 0 0 1024 768" xml:space="preserve">
<g>
	<g>
		<path d="M462.9,406.2c-3.3,7.7-9.2,13.7-17.7,18.1c-8.5,4.3-18.4,6.5-29.6,6.5c-14.3,0-26.2-2.5-35.9-7.5
			c-9.7-5-17.5-11.6-23.5-19.8c-6-8.2-10.3-17.6-13-28.4c-2.7-10.7-4-21.7-4-32.9c0-13.3,2-25.5,6-36.6c4-11.1,9.3-20.6,16.1-28.4
			c6.8-7.8,14.7-13.9,23.8-18.2c9.1-4.3,18.9-6.5,29.4-6.5c21.5,0,37.6,8.6,48.4,25.9v-21.4h45.6v174.2c0,13.1-2.2,24.6-6.7,34.5
			c-4.4,9.9-10.5,18.2-18.2,24.9s-16.8,11.7-27.3,15.2c-10.5,3.5-21.7,5.3-33.6,5.3c-11.9,0-23-1.7-33.3-5.1
			c-10.3-3.4-19.1-8.2-26.5-14.4c-7.4-6.2-13.1-13.7-17.3-22.6c-4.2-8.9-6.3-18.9-6.3-30.1h42.4c0,10.5,3.4,18.6,10.3,24.4
			c6.9,5.7,16.1,8.6,27.5,8.6c12.1,0,22.4-3.3,30.8-10s12.6-15.7,12.6-27.2V406.2z M425.4,395c11.2,0,20.5-4.3,27.9-12.8
			c7.4-8.5,11-20.2,11-34.9c0-36.9-13-55.4-38.9-55.4s-38.9,17.5-38.9,52.6c0,15.4,3.7,27.7,11,36.8
			C404.9,390.5,414.2,395,425.4,395z"/>
		<path d="M527.7,236.3v-42.4h45.6v42.4H527.7z M527.7,429.4V256.9h45.6v172.4H527.7z"/>
		<path d="M690.4,315.8h42.4v49.1c0,9.1-1.3,17.8-4,26.1c-2.7,8.3-6.9,15.7-12.6,22.1c-5.7,6.4-13,11.5-21.7,15.2
			c-8.8,3.7-19.2,5.6-31.4,5.6c-12.6,0-23.4-1.9-32.2-5.6c-8.9-3.7-16.2-8.8-21.9-15.1c-5.7-6.3-9.9-13.7-12.4-22.1
			c-2.6-8.4-3.9-17.3-3.9-26.6V210.3h44.9v46.6h95.3v32.2h-95.3V360c0,11,2,19.5,6.1,25.4c4.1,6,10.8,8.9,20.2,8.9
			c9.1,0,15.8-2.9,20.2-8.8c4.3-5.8,6.5-14.1,6.5-24.9V315.8z"/>
	</g>
	<path fill="#231F20" d="M828.7,379.1c127.9-515.9-803.4-275.3-652.6,34.9c117.6,241.9,542.2,337.7,667,56.5
		C963.5,199.4,545.4-115.6,324.5,89.4c-245.2,227.6-7.9,647.8,290,667.8c2.8,0.2,3.3-4.6,0.5-5c-229.7-27.8-411.1-262.6-372.4-492.5
		C277.1,54.7,487.8-1.3,655,83.3c172.5,87.3,261,296.8,130.4,457.4c-126.2,155.2-335,87.6-475.6-3.3
		C220,479.3,136.4,381.2,194.6,272.3c44.1-82.5,145.6-129.2,230.2-156c209.2-66.1,449.1,1.2,399.7,261.9
		C824,380.9,828,381.8,828.7,379.1L828.7,379.1z"/>
</g>
</svg>
