<?xml version="1.0" encoding="utf-8"?>
<!-- Generator: Adobe Illustrator 18.0.0, SVG Export Plug-In . SVG Version: 6.00 Build 0)  -->
<!DOCTYPE svg PUBLIC "-//W3C//DTD SVG 1.1//EN" "http://www.w3.org/Graphics/SVG/1.1/DTD/svg11.dtd">
<svg version="1.1" id="Layer_1" xmlns="http://www.w3.org/2000/svg" xmlns:xlink="http://www.w3.org/1999/xlink" x="0px" y="0px"
	 viewBox="0 0 1024 768" enable-background="new 0 0 1024 768" xml:space="preserve">
<g>
	<g>
		<path d="M515.5,449.1l-1.1-23.1c-5.6,9.8-14.6,17.5-27,23c-12.4,5.5-26.6,8.2-42.8,8.2c-16.1,0-30.7-3.5-43.6-10.3
			c-13-6.9-24.1-16.1-33.3-27.7c-9.2-11.6-16.3-24.9-21.2-40s-7.4-30.7-7.4-46.8c0-17.1,2.5-33.1,7.4-48.2
			c4.9-15.1,12.1-28.2,21.7-39.4c9.6-11.2,21.5-20,35.8-26.5c14.2-6.4,30.8-9.6,49.8-9.6c13.8,0,26.7,2,38.7,6
			c12,4,22.5,9.5,31.5,16.5c9,7,16.2,15.4,21.7,25.1c5.5,9.7,8.7,20.4,9.6,32.1h-49.1c-0.7-5.4-2.6-10.5-5.6-15.2
			c-3-4.8-6.9-8.9-11.6-12.4c-4.7-3.5-10.1-6.3-16.3-8.4c-6.2-2.1-12.6-3.2-19.1-3.2c-19.6,0-35.3,7.3-47.1,21.9
			c-11.8,14.6-17.7,35.8-17.7,63.6c0,9.6,1.2,19.2,3.7,28.9c2.5,9.7,6.3,18.5,11.6,26.3c5.3,7.8,12,14.2,20.2,19.1
			c8.2,4.9,17.9,7.4,29.1,7.4c7.9,0,15.4-1.4,22.3-4.2c6.9-2.8,12.9-6.7,18-11.6c5.1-4.9,9.2-10.6,12.1-17
			c2.9-6.4,4.4-13.3,4.4-20.5h-51.5v-38.9h97.1v125.1H515.5z"/>
		<path d="M638.8,411.6v-66.2H573v-32.9h65.9v-65.9h32.9v65.9H738v32.9h-66.2v66.2H638.8z"/>
	</g>
	<path fill="#231F20" d="M632.6,108.8C185.3-178.4,113.3,780.7,455.5,737.9c266.9-33.5,494.3-404.6,268.3-613.3
		C505.9-76.7,73,217.7,196,492.8c136.5,305.4,610.8,216.1,725.6-59.5c1.1-2.6-3.3-4.6-4.6-2C816.7,639.7,536,735.8,330.8,625.2
		C147.8,526.5,162.7,309,296.6,177.9c138.2-135.2,365-151.5,475,23.8c106.3,169.5-25,345.3-156.2,449.2
		c-83.9,66.4-203.8,114-288.1,23.7c-63.9-68.3-75.5-179.5-73.5-268.2c4.8-219.4,145.8-424.8,376.6-294
		C632.8,113.8,634.9,110.3,632.6,108.8L632.6,108.8z"/>
</g>
</svg>
