<?xml version="1.0" encoding="utf-8"?>
<!-- Generator: Adobe Illustrator 18.0.0, SVG Export Plug-In . SVG Version: 6.00 Build 0)  -->
<!DOCTYPE svg PUBLIC "-//W3C//DTD SVG 1.1//EN" "http://www.w3.org/Graphics/SVG/1.1/DTD/svg11.dtd">
<svg version="1.1" id="Layer_1" xmlns="http://www.w3.org/2000/svg" xmlns:xlink="http://www.w3.org/1999/xlink" x="0px" y="0px"
	 viewBox="0 0 1024 768" enable-background="new 0 0 1024 768" xml:space="preserve">
<g>
	<g>
		<path d="M394.2,274.5v-42.4h45.6v42.4H394.2z M394.2,467.6V295.2h45.6v172.4H394.2z"/>
		<path d="M569.4,467.6V363.2c0-13.3-2.2-22.3-6.7-27c-4.4-4.7-12-7-22.8-7c-23.6,0-35.4,13.2-35.4,39.6v98.8H459V295.2h43.5v25.2
			c5.4-9.8,12.5-17.2,21.4-22.3c8.9-5,20.3-7.5,34.3-7.5c8.2,0,15.8,1.2,22.8,3.7c7,2.5,13,6.1,18,11c5,4.9,9,10.9,11.9,18
			c2.9,7.1,4.4,15.4,4.4,24.7v119.5H569.4z"/>
	</g>
	<path fill="#231F20" d="M244.7,266.2C-89.4,679.7,856.2,855.4,850.8,510.5c-4.3-269-348.5-535.3-580.5-333.3
		C46.5,372,292.2,834.3,579,742c318.5-102.6,281.1-583.7,19.6-727.7c-2.5-1.4-4.9,2.8-2.5,4.3c196.4,122.3,261.5,411.8,129.2,603.8
		c-117.9,171.1-332.6,132.8-448.3-14.6c-119.4-152-111-379.3,75.3-469.6c180-87.2,340.6,62.3,429.5,204.1
		c56.9,90.7,91.2,214.9-7.7,289c-74.9,56.1-186.6,55.5-274.6,44C281.9,646.6,93,484.1,248,268.8
		C249.7,266.6,246.4,264.1,244.7,266.2L244.7,266.2z"/>
</g>
</svg>
