<?xml version="1.0" encoding="utf-8"?>
<!-- Generator: Adobe Illustrator 18.0.0, SVG Export Plug-In . SVG Version: 6.00 Build 0)  -->
<!DOCTYPE svg PUBLIC "-//W3C//DTD SVG 1.1//EN" "http://www.w3.org/Graphics/SVG/1.1/DTD/svg11.dtd">
<svg version="1.1" id="Layer_1" xmlns="http://www.w3.org/2000/svg" xmlns:xlink="http://www.w3.org/1999/xlink" x="0px" y="0px"
	 viewBox="0 0 1280 800" enable-background="new 0 0 1280 800" xml:space="preserve">
<rect x="1.9" y="-1.3" fill="#BFB8AF" width="1278.2" height="802"/>
<g>
	<g>
		<line fill="#CDB59C" x1="1.9" y1="-1.3" x2="801.9" y2="-1.3"/>
	</g>
	<g opacity="0.55">
		<g>
			<g>
				<path fill="#E5C8A9" d="M26-1.3h-2.3"/>
			</g>
			<g>
				<path fill="#E5C8A9" d="M25.8-1.3h-3.3"/>
			</g>
			<g>
				<path fill="#E5C8A9" d="M210.6-1.3H207"/>
			</g>
			<g>
				<path fill="#E5C8A9" d="M184.2-1.3h-3.3"/>
			</g>
			<g>
				<path fill="#E5C8A9" d="M181.3-1.3h-3.7"/>
			</g>
			<g>
				<path fill="#E5C8A9" d="M46.6-1.3h-2.9"/>
			</g>
			<g>
				<path fill="#E5C8A9" d="M117.9-1.3h-3.3"/>
			</g>
			<g>
				<path fill="#E5C8A9" d="M77.8-1.3h-3.1c0,0.4,0,0.8,0,1.2"/>
			</g>
			<g>
				<path fill="#E5C8A9" d="M241.9-1.3h-3.5"/>
			</g>
			<g>
				<path fill="#E5C8A9" d="M255.9-1.3h-2.7"/>
			</g>
			<g>
				<path fill="#E5C8A9" d="M284.5-1.3h-3.1"/>
			</g>
			<g>
				<path fill="#E5C8A9" d="M310.9-1.3h-2.7"/>
			</g>
			<g>
				<path fill="#E5C8A9" d="M347.4-1.3h-2.7"/>
			</g>
		</g>
		<g>
			<g>
				<path fill="#E5C8A9" d="M504.2-1.3h-2.1"/>
			</g>
			<g>
				<path fill="#E5C8A9" d="M663.6-1.3h-3.5"/>
			</g>
			<g>
				<path fill="#E5C8A9" d="M611.7-1.3h-2.5"/>
			</g>
			<g>
				<path fill="#E5C8A9" d="M522.1-1.3h-2.7"/>
			</g>
			<g>
				<path fill="#E5C8A9" d="M574.2-1.3h-3.4"/>
			</g>
			<g>
				<path fill="#E5C8A9" d="M545-1.3h-2.6"/>
			</g>
			<g>
				<path fill="#E5C8A9" d="M706.8-1.3h-3.5"/>
			</g>
			<g>
				<path fill="#E5C8A9" d="M731.6-1.3h-2.5"/>
			</g>
			<g>
				<path fill="#E5C8A9" d="M751.8-1.3h-2.3"/>
			</g>
			<g>
				<path fill="#E5C8A9" d="M787-1.3h-2.1"/>
			</g>
		</g>
		<g>
			<path fill="#E5C8A9" d="M379.3-1.3h-2.9"/>
		</g>
		<g>
			<path fill="#E5C8A9" d="M406.7-1.3h-3.5"/>
		</g>
		<g>
			<path fill="#E5C8A9" d="M459.5-1.3h-3.1"/>
		</g>
		<g>
			<path fill="#E5C8A9" d="M476.5-1.3h-3"/>
		</g>
		<g>
			<path fill="#E5C8A9" d="M490.5-1.3h-4"/>
		</g>
	</g>
</g>
<g>
	<g>
		<g>
			<path fill="#B6AFA5" d="M20.8,455.8c-0.4-65.7-4.5-131.3-4.6-197c0-66.3-0.1-132.5-0.2-198.8c0-20-0.1-40-0.3-60h-2.2
				c-0.8,56.3-0.3,112.7-0.3,169c0,66-0.3,131.8,2,197.8c1.2,33,2.3,66,2.4,99c0,32.4-2.7,64.7-5.1,97c-2.5,32.1-4.2,64.1-3.8,96.3
				c0.4,31.9,2.4,63.7,3.3,95.5c0.4,15.2,0,30.4,1.5,45.4h2.7c-1.4-17.6-0.5-35.7-1.3-53.1c-1.6-32.6-2.9-65.2-3.1-97.8
				C11.4,584.6,21.2,520.4,20.8,455.8z"/>
		</g>
		<g>
			<path fill="#B6AFA5" d="M32.9,629.7c7.1-65.3,7.1-131.2,4.6-196.7c-2.6-65.6-7.7-131.1-11.5-196.7c-1.9-32.9-1.9-65.3,0.9-98.1
				c2.7-32.5,7.1-64.9,8.4-97.6c0.5-13.6,0.6-27.1,0.6-40.7h-2.3c0,16.9-0.1,33.7-0.8,50.6c-1.4,32.6-6.1,64.9-8.8,97.4
				C18.6,213.4,26,279.1,30,344.4c4.1,65.6,7.2,131.2,5.6,196.9c-0.8,32.8-3,65.6-6.8,98.2c-1.9,16.4-4.1,32.6-4.5,49.2
				c-0.4,16.4,0.4,32.9,1.7,49.3c1.7,20.8,4.8,41.4,7.6,62h1.6c-0.7-7.5-1.4-15.1-2.3-22.6c-1.8-16.4-3.6-32.8-4.7-49.3
				c-1.1-16.4-1.4-32.8-0.6-49.3C28.4,662.4,31.1,646.1,32.9,629.7z"/>
		</g>
		<g>
			<path fill="#B6AFA5" d="M182.3,419.5c0.3-5.1,1.9-10.7,3.3-15.6c1.8-6.4,4.3-13.3,8.5-18.6c4.6-5.8,9-0.7,11,4.4
				c2.6,6.5,3,13.8,3.1,20.7c0.1,5.9-0.3,12-2,17.6c-3,10.1-14.2,11-20.2,3.1c-3.2-4.2-2.2-10.9-2.1-15.9c0.1-2.8,0.6-6.1,1.1-8.9
				c0.5-2.5-0.3-1.7-0.5-0.6c-1,4.6-2,9.2-2.9,13.8c-0.1,0.6,0.8,0.8,0.9,0.2c1-4.9,2.6-10.2,2.8-15.2c0-0.3-0.4-0.3-0.5-0.1
				c-2.8,9.2-7.1,20.4-0.5,29c4.2,5.4,11.4,7.4,17.6,4.5c5.6-2.7,7.4-9.6,8.2-15.2c1.1-7.9,0.9-16-0.2-23.9c-1-7.3-6.9-26.4-17.1-16
				c-4.7,4.8-7,12.1-8.9,18.3c-1.8,5.8-3.8,12.4-2.3,18.5C181.5,420.2,182.3,420,182.3,419.5z"/>
		</g>
		<g>
			<path fill="#B6AFA5" d="M198.6,457.4c19.9-8.6,21.7-30.6,19.6-49.7c-1.5-13.2-3.1-25.9-1.9-39.3c0.8-8.9,1.1-20.2-8.3-24.7
				c-13.3-6.4-21.9,18.8-25,27.1c-4.8,12.8-8.8,25.4-10.5,38.9c-1.8,13.8-2.4,27.6,4.8,40.1c2.1,3.7,5.8,6,9.5,8.1
				c3.2,1.8,2.7,0,1.9,2.2C187.7,462.4,198.3,457.6,198.6,457.4c0.4-0.2,0-0.7-0.3-0.6c-2.8,1.3-5.9,3.2-9.1,3.5
				c0.1,0,0.7-0.8,0.9-0.9c0.2-0.1,0.1-0.4-0.1-0.5c-2.6-1.3-7.2-2.9-7.7-6.2c-0.2-1.6-2.6-4.1-3.4-5.6c-3.5-6.3-4.6-13.9-4.7-20.9
				c-0.1-13.7,2.8-27.8,6.8-40.8c2.3-7.7,5.4-15.4,8.7-22.8c2.6-5.8,6.5-14.7,13.4-16.4c4.7-1.2,8.4,4.3,9.6,8
				c1.7,4.9,0.9,10.6,0.5,15.7c-0.9,11.7,0,23.2,1.8,34.8c2.9,18.9,2,41.7-16.7,52.4C197.9,457.1,198.3,457.6,198.6,457.4z"/>
		</g>
		<g>
			<path fill="#B6AFA5" d="M200.6,471c10.3-3.3,18.4-9.2,24.7-18.1c7-9.9,8.4-21.5,8-33.3c-0.5-15.9-3.8-31.5-3.8-47.4
				c0-11.3,2.4-22.6,3.4-33.8c1.3-14.3-0.4-45.7-22.5-41.7c-8.4,1.5-15.6,9.4-20.5,15.8c-6.8,8.8-11.5,18.7-15.4,29.1
				c-6.5,17.2-9.6,35.5-13.4,53.4c-2.9,13.7-5.5,27.5-4.8,41.6c0.7,13,5.3,26.1,16.1,34.1c4.7,3.5,11.8,4.9,17.5,4.1
				C193.5,474.3,197.3,472.2,200.6,471c0.4-0.2,0.2-0.8-0.2-0.7c-3.4,1.1-6.9,2.3-10.4,3.2c-0.6,0.2-4.6-0.8-5.5-1.4
				c-0.7-0.5-2.3-0.6-3.2-0.8c-2.2-0.6-4.1-1.6-6-2.8c-11.1-7-14.8-21.3-15.5-33.5c-0.7-11.9,1.5-23.9,3.7-35.6
				c2.7-13.9,5.3-27.9,9-41.6c3.5-13,8.2-26,15.4-37.4c5.2-8.2,12.6-17.6,22.3-20.6c12.9-4,18.7,12.5,19.7,22.1
				c1.2,11.3-0.8,22.8-2.2,33.9c-1.3,9.9-1.5,19.6-0.8,29.6c1,12.7,3.1,25.2,3.3,37.9c0.3,21.2-11,37.8-30,47
				C200,470.6,200.2,471.1,200.6,471z"/>
		</g>
		<g>
			<path fill="#B6AFA5" d="M174.5,440.1c-0.8,8.8,6.3,19.1,15.6,20.2c8.5,1,20-6.7,21.8-15.1c0.1-0.3-0.3-0.5-0.5-0.3
				c-5.4,5.2-10.5,11.7-18.6,12.8c-9.8,1.3-16.2-9.7-17.7-17.7C175,439.7,174.5,439.8,174.5,440.1L174.5,440.1z"/>
		</g>
		<g>
			<path fill="#B6AFA5" d="M166,462.3c5.2,10.1,15.6,14.3,26.7,12.8c5.6-0.8,11-3.3,15.8-6.2c5.6-3.4,9.1-7.6,12.3-13.1
				c0.1-0.1-0.1-0.3-0.2-0.1c-5.9,7.5-17.2,13.3-26.4,15.7c-11.1,2.9-20.3-1.1-27.8-9.4C166.2,461.7,165.8,462,166,462.3L166,462.3z
				"/>
		</g>
		<g>
			<path fill="#B6AFA5" d="M176,445.6c-0.1,3.7,0.4,5.6,3.3,8.2c2.9,2.6,7,4.1,10.7,4.9c4.3,1,8,0.7,11.9-1.5
				c4.8-2.7,6.3-7.4,9.3-11.5c0.1-0.1-0.1-0.2-0.2-0.1c-5.6,5.4-11.6,11.9-20.1,10c-4.5-1-14-4.2-14.2-10
				C176.6,445.2,176,445.2,176,445.6L176,445.6z"/>
		</g>
		<g>
			<path fill="#B6AFA5" d="M174.9,443.1c0,9.2,11.1,12.4,18.6,12.6c4.5,0.1,9.1-1.8,12.5-4.6c2.2-1.8,4.2-3.8,5.9-6.1
				c1.8-2.3,2.1-4.1,3.4-6.8c0.1-0.2-0.2-0.3-0.3-0.2c-4.1,6.6-12,13.6-20,14.5c-3.8,0.5-7.9-0.4-11.4-2c-3.6-1.6-5.5-4.9-8-7.7
				C175.3,442.6,174.9,442.8,174.9,443.1L174.9,443.1z"/>
		</g>
		<g>
			<path fill="#B6AFA5" d="M184.9,456.9c5.2,0.3,13.2,1.9,15.5-4.1c0.1-0.4-0.3-0.6-0.6-0.5c-2.8,1.5-5.7,2-8.9,2.2
				c-2.3,0.1-4.6,0.1-6.2,2C184.5,456.6,184.6,456.9,184.9,456.9L184.9,456.9z"/>
		</g>
		<g>
			<path fill="#B6AFA5" d="M198.4,453.8c-2.1,0.7-4.4,1-6.6,1.5c-2.8,0.6-5.8-0.7-8.2-2c-0.4-0.2-0.9,0.2-0.6,0.6
				c1.9,2.5,3.8,4,7.1,4.2c3.3,0.2,5.9-2.1,8.6-3.6C199,454.3,198.8,453.6,198.4,453.8L198.4,453.8z"/>
		</g>
		<g>
			<path fill="#B6AFA5" d="M175,444.2c1.6,5.1,2.7,8.7,7.2,12c3,2.2,10.3,5.1,13.6,2.6c0.5-0.4,0.5-1,0-1.3c-1.6-1.2-3.5-1-5.5-1.3
				c-2.1-0.3-4.1-1-6-2c-3.7-1.9-7.4-6.4-8.8-10.2C175.5,443.7,174.9,443.8,175,444.2L175,444.2z"/>
		</g>
		<g>
			<path fill="#B6AFA5" d="M177.5,390.9c-5,18-13.8,49,6.6,61.1c8.6,5.1,19.2,2.3,26-4.3c3.8-3.7,5.9-8.9,7.2-13.9
				c1.9-7.1,0.3-13.3-0.1-20.4c0-0.1-0.1-0.1-0.1,0c-0.3,5.4-1,11.5-2,16.9c-0.8,4.4-2.5,8.5-5,12.2c-5.9,9-17.7,11.2-26.5,5.3
				c-8.6-5.8-9.2-18.4-9-27.6c0.2-9.7,1.5-19.9,3.5-29.3C178.2,390.7,177.6,390.6,177.5,390.9L177.5,390.9z"/>
		</g>
		<g>
			<path fill="#B6AFA5" d="M164,393.4c-1.8,4.4-3.6,8.3-4.8,12.9c-1.2,4.6-2,9.3-2.5,14.1c-1.2,9.7-0.2,19.8,3.1,29
				c5.2,14.7,17.9,27,34.4,24.7c14.3-2,26-14.6,32.7-26.5c9.8-17.4,7.2-37.7,2.3-56.2c-0.1-0.5-0.9-0.4-0.9,0.1
				c0.1,17.6,5,34.3-3,51c-5.7,11.9-16.1,23.3-29.1,27.2c-16.7,4.9-29.3-9.8-34.2-24c-5.6-16.4-2.3-35.9,2.4-52.1
				C164.5,393.3,164.1,393.2,164,393.4L164,393.4z"/>
		</g>
		<g>
			<path fill="#B6AFA5" d="M153.3,382.3c-1.7,15.9-5.6,31.5-7.7,47.3c-1.5,11.5-0.6,22.4,3,33.5c5.8,17.9,20.2,38.7,40.6,41.1
				c18.1,2.1,30.5-18.3,37.9-31.6c10.8-19.4,21.4-39.2,23.8-61.6c1.4-12.6,0.2-25.4-1.6-37.9c-2.3-15.9-4.2-31.3-4.2-47.4
				c0-12.7,2.3-25.7-1.2-38.1c-2.4-8.4-8.9-16.9-17.6-19.3c-16-4.4-30.4,14.9-37.8,26.1c-5.5,8.2-9.4,17-13.3,26
				c-6.2,14.3-12.1,28.6-16.9,43.4c-7.9,24.4-11.8,51-12.8,76.6c-0.1,1.9,2.9,1.9,3,0c1.5-31.3,7.7-62.6,18.8-92
				c8.2-21.8,16.7-45,32.1-62.9c5.6-6.5,13.2-13.8,22.2-14.4c12.5-0.8,19.2,14.2,20.6,24.2c0.8,5.9,0.4,12,0.1,17.9
				c-0.5,8-0.5,15.9-0.2,23.9c0.5,15.1,3.4,29.6,5.1,44.5c1.5,12.6,1.5,25.3-0.8,37.8c-2.4,12.6-7.8,23.8-13.7,35.1
				c-8,15.5-16,35.7-32.6,44c-9.6,4.8-20.1,0.1-27.8-6.1c-9.2-7.4-15.6-18.2-19.8-29.1c-10-26.2,0.2-54.3,1.7-81.2
				C154,381.9,153.3,381.9,153.3,382.3L153.3,382.3z"/>
		</g>
		<g>
			<path fill="#B6AFA5" d="M147.3,431.7c-0.4,3.7-1.3,6.9-1.1,10.7c0.2,3.4,0.8,6.8,1.5,10.2c1.6,7.8,4.7,15.3,8.5,22.2
				c6.4,11.6,17.5,24.2,31.4,26.2c12,1.7,21.9-7.3,28.7-16c9.4-11.9,15.8-25.9,22.7-39.2c0-0.1-0.1-0.1-0.1-0.1
				c-4,6-8.3,11.7-12,17.9c-2.9,4.9-6.1,9.7-9.4,14.4c-6.4,9.1-15.2,19.5-27.2,19.7c-13.7,0.2-24.8-14.1-31-24.6
				c-3.6-6.2-6.3-13-8.1-19.9c-1-3.5-1.6-7.1-2-10.8c-0.4-3.4-1.4-7.3-1.2-10.7C147.9,431.3,147.3,431.4,147.3,431.7L147.3,431.7z"
				/>
		</g>
		<g>
			<path fill="#B6AFA5" d="M155,350.7c-2,7.4-4.5,14.6-6.3,22.2c-2,8.2-3.7,16.4-5.5,24.6c-3.3,14.9-7.4,29.6-8.8,44.8
				c-2.2,25.1,7,48.4,22.3,68c12.5,15.9,31.4,29.1,52.5,23.9c20.2-5,33.2-23.2,41.5-41c9.4-20.2,15.5-43.2,19-65.1
				c5-30.7,0.8-61.3,0.7-92.2c-0.1-15.9,0.6-31.8,1.3-47.7c0.4-9.7,0.7-19.3-0.3-29c-1.6-15.9-5.8-34.7-19.8-44.5
				c-12.8-8.9-29.3-4.1-40.2,5.2c-13.3,11.4-21.1,28.7-27.4,44.6c-8.1,20.2-14.3,41.2-21.5,61.7c-4.8,13.6-9.6,27.2-12.6,41.3
				c-2.8,13-4.5,26.4-9.1,39c-0.7,1.9,2.2,2.6,2.9,0.8c5.3-13.7,7.2-28.2,10.4-42.4c3.4-15.3,9.2-30.2,14.3-45
				c7.6-21.7,13.9-44.1,23.5-65.1c7.6-16.6,19-37,38.6-40.9c21.5-4.4,32.2,16.4,36,33.8c4.9,22.6,1.6,46.2,1,69
				c-0.4,16-0.3,32.1,0.7,48.1c0.9,15.5,1.6,30.9,0.4,46.4c-1.8,24.3-8.3,49.3-17.1,72c-7.9,20.4-20.6,41.3-42.9,47.6
				c-31.6,9-56.8-28.4-66.1-53.2c-7.7-20.4-4.5-42,0.3-62.6c2.5-10.7,4.8-21.4,7.1-32.1c2.2-10.6,3.9-21.6,6.6-32.1
				C156.4,350.3,155.3,350,155,350.7L155,350.7z"/>
		</g>
		<g>
			<path fill="#B6AFA5" d="M112.8,441.5c-3.6,35.9,11.4,73.9,33.9,101.6c10.5,12.9,24.2,24.3,40.6,28.5c16.6,4.3,33.5-1.2,46.7-11.4
				c18.1-14,31.1-34.5,41.3-54.6c11.2-22,19-45.7,24.8-69.7c5.7-23.6,9.3-47.8,11.2-72c1-12.4,1.7-24.8,0.7-37.2
				c-1.1-13.9-4.4-27.6-8.4-40.9c-4.1-13.8-8.9-27.3-12.8-41.1c-3-10.3-5-20.7-6.8-31.2c-3.7-21.3-6.9-43.7-17.7-62.7
				c-8.5-14.9-25.7-28.6-43.7-22.1c-16.5,6-26.6,24.8-33.1,39.9c-10.2,23.6-13.7,49.9-18.7,74.9c-3,14.7-6.4,29.4-11.2,43.6
				c-5,14.7-12.1,28.5-18.2,42.8c-11.8,27.4-21.8,55.7-26.7,85.1c-4.3,26.1-5.4,57,6.2,81.5c0.7,1.6,3,0.2,2.3-1.4
				c-6-13.4-7.3-29.6-7.7-44.1c-0.4-15.4,1.4-30.8,4.5-45.8c6.1-30.1,17.6-58.9,30.1-86.8c6-13.4,11.9-26.7,16.1-40.8
				c4.2-14.4,7.1-29.2,10-43.9c4.7-24.3,8.9-49.4,20.1-71.7c7.8-15.4,22-35.9,42.1-30.9c22.2,5.5,31.3,31.7,36.2,51.1
				c5.4,21.5,7.4,43.6,13.6,65c8.1,28.1,19.3,55.3,21,84.8c1.4,24.2-2.1,49.5-6.1,73.3c-4.1,24.9-10.4,49.5-19.4,73.1
				c-8.7,23-20.5,45.2-36.4,64.1c-12.8,15.1-30.2,28-50.9,26.8c-27.3-1.6-47.9-26.8-60.4-48.5c-7.4-12.7-12.9-26.5-16.7-40.7
				c-3.3-12.4-5.8-25.9-4.7-38.7C114.5,440.4,112.9,440.4,112.8,441.5L112.8,441.5z"/>
		</g>
		<g>
			<path fill="#B6AFA5" d="M15.3,379c1.3,9.4,1.5,19.1,2.6,28.6c1.1,9.7,2,19.4,2.7,29.1c1.4,19,1.8,37.7-0.4,56.6
				c-2.2,18.5-5.8,36.7-7.4,55.2c-1.5,17.4,1.5,35.6-1.7,52.8c-0.1,0.7,0.8,0.9,1,0.3c5.2-15.8,2.5-32.9,3.8-49.3
				c1.5-19.2,5.2-38.1,7.6-57.1c2.5-19.6,1.9-38.8,0.4-58.5c-0.8-9.7-1.8-19.4-3-29.1c-1.2-9.7-3.6-19.1-5.1-28.7
				C15.8,378.6,15.3,378.7,15.3,379L15.3,379z"/>
		</g>
		<g>
			<path fill="#B6AFA5" d="M19.3,435c-2.1,9.4-1.2,19.6-1.2,29.2c0,5.2,0,10.4,0,15.6c0,4.6-0.4,9.2,1,13.6c0.2,0.6,1,0.6,1.2,0
				c1.3-4.4,1-9,1-13.6c0-5.2,0-10.4,0-15.6c0-9.6,0.9-19.7-1.2-29.2C19.9,434.6,19.3,434.6,19.3,435L19.3,435z"/>
		</g>
		<g>
			<path fill="#B6AFA5" d="M17.3,436.2c1.4,4.8,1.6,9.7,1.4,14.7c-0.1,4-1.8,10.1,0.2,13.7c0.3,0.5,1,0.5,1.3,0
				c2.2-3.9,1.2-10.8,1.1-15.2c0-4.5-0.2-10.1-3.6-13.5C17.6,435.7,17.3,435.9,17.3,436.2L17.3,436.2z"/>
		</g>
		<g>
			<path fill="#B6AFA5" d="M19.2,445.1c-0.5,9.4-0.8,18.7-0.1,28.1c0,0.6,0.9,0.6,0.9,0c0.8-9.4,0.5-18.7-0.1-28.1
				C20,444.6,19.3,444.6,19.2,445.1L19.2,445.1z"/>
		</g>
		<g>
			<path fill="#B6AFA5" d="M32.2,0c0.2,5.5,0.5,10.9,0.6,16.4C33.4,37.6,33,58.9,32,80.1c-1,20.5-2.9,41-5.4,61.4
				c-1.2,9.7-2.1,19.5-2.6,29.3c-0.5,10.6,0,21.2-0.4,31.8c0,0.2,0.3,0.2,0.3,0c1.1-20.1,2-40.8,5.5-60.7
				c3.6-20.3,4.8-41.2,5.9-61.8c1.4-26.7,1.5-53.4,0.3-80.1H32.2z"/>
		</g>
		<g>
			<path fill="#B6AFA5" d="M29,141.4c2.4-8.6,3.8-19.2,3.1-28.2c-0.1-1.5-2.4-2-2.7-0.4c-1,4.3-1.8,8.6-2.3,13
				c-0.5,4.3-1.5,9.4-0.1,13.6c0.3,0.8,1.3,0.8,1.6,0c1.3-3.7,0.9-7.9,1.2-11.7c0.4-4.8,1.3-9.5,2.4-14.2c-0.9-0.1-1.8-0.2-2.7-0.4
				c0.8,9.3-3.1,19-0.9,28.2C28.4,141.8,28.9,141.7,29,141.4L29,141.4z"/>
		</g>
		<g>
			<path fill="#B6AFA5" d="M32.4,96.2c-0.2,7.4-2.5,15.9-0.1,23.2c0.1,0.3,0.6,0.3,0.7,0c2.4-7.2,0.2-15.8-0.1-23.2
				C33,95.9,32.5,95.9,32.4,96.2L32.4,96.2z"/>
		</g>
		<g>
			<path fill="#B6AFA5" d="M30.4,94.2c-0.3,8.2-3.8,16-1,24.1c0.1,0.4,0.6,0.3,0.7-0.1c1.1-8,1-16,1-24.1
				C31,93.8,30.4,93.8,30.4,94.2L30.4,94.2z"/>
		</g>
		<g>
			<path fill="#B6AFA5" d="M31.2,773.3c0.8,8.8,1.5,17.9,3,26.7h4c-1.5-9.4-2.6-18.9-3.5-28.5c-1.6-17.9-3.9-35.7-5.2-53.6
				c-1.3-18-1.6-36-0.7-54c0.5-9.3,1.9-18.5,3.1-27.7c1.2-9.6,1.7-19,2.1-28.7c0-0.3-0.5-0.3-0.5,0c-1.5,18.9-6.5,37.4-8,56.4
				c-1.5,18.6-0.8,37.3,0.5,55.9C27.3,737.7,29.7,755.4,31.2,773.3z"/>
		</g>
		<g>
			<path fill="#B6AFA5" d="M113.3,539c2.8,11.2,6.2,22,13.5,31.2c7.9,10,19.1,14.3,30.8,18.4c11.3,3.9,26.7,10.3,22.9,24.9
				c-1.2,4.5-3.2,8.8-4.5,13.3c-1.8,6.4-1.7,13.4-1.9,19.9c-0.3,15.8,1.5,31.6,2.2,47.4c1,21.8-1.8,43.3-4,64.9
				c-1.4,13.6-2.5,27.5-1.4,41.1h3.3c-1.3-21.5,2.2-43.4,4.4-64.6c1.6-15.1,2.2-30,1.4-45.2c-0.8-15.8-2.4-31.5-1.9-47.3
				c0.2-6.4,0.7-12.6,2.7-18.7c1.4-4.4,3.6-8.7,4.2-13.3c1.4-10.7-7.2-17.6-16-21.9c-12-5.8-25.3-7.6-35.3-17
				c-9.7-9.1-13.5-21.5-16.7-34c-2.5-9.8-7.9-18.6-12.3-27.6c-5.3-11-7.3-22.2-7.9-34.4c-0.5-11.5,0.5-23,1.5-34.4
				c1.1-12,1.5-23.6,1.2-35.7c0-0.5-0.7-0.5-0.7,0c-0.5,15.7-3.5,31.5-4.8,47.1c-1.3,15.2-1.7,31.1,2.2,46
				C99.9,513.2,109.7,524.9,113.3,539z"/>
		</g>
		<g>
			<path fill="#B6AFA5" d="M225.3,33c-2.5-7.5-3.1-14.9-3.8-22.7c-0.3-3.4-0.7-6.9-1.2-10.3h-3.7c0.3,2.2,0.6,4.3,0.8,6.5
				c0.8,6.6,0.8,13.2,2.2,19.7c1.4,6.8,4.1,13.4,6.7,19.9c5,12.6,10.9,26.3,8.9,40.2c-1.7,12-11.1,21.2-19.8,28.9
				c-18,15.8-36.9,30.4-46,53.3c-5.7,14.5-9.1,30.3-13.3,45.2c-4.4,15.8-8.9,31.5-13.7,47.2c-9.9,31.8-22.6,62.7-32.8,94.4
				c-4.9,15.3-9.1,30.9-11.9,46.8c-1.3,7.4-2.4,14.8-3.1,22.3c-0.4,4.3-0.7,8.5-0.8,12.8c-0.1,3.8,0.9,7.3,1,11c0,0.4,0.6,0.4,0.6,0
				c0-3.1,0.7-7.5,1.2-10.6c0.5-3.1,0.4-6.4,0.6-9.5c0.7-8.4,2-16.8,3.6-25.1c2.9-15.2,7.1-30.1,11.8-44.9
				c9.4-29.9,21.4-58.8,31-88.6c10-31,18.4-62.6,27.4-94c7.2-25.2,28.1-41.2,47.1-57.7c8.5-7.3,16.3-15.7,19.8-26.5
				c4-12.5-0.5-26.7-5-38.5C230.3,46.1,227.5,39.7,225.3,33z"/>
		</g>
		<g>
			<path fill="#B6AFA5" d="M190.7,0c2.6,12.7,5.7,25.3,7.9,38c2.5,13.8,3.7,27.8,2.2,41.8c-1.7,15.6-8.1,29.1-16.3,42.3
				c-7.8,12.6-15.7,25.2-22.6,38.3c-6.6,12.8-11.4,26.1-15.2,39.9c-8,29.2-13,59.2-23.9,87.6c-5.6,14.7-11.7,29.2-17.2,43.9
				c-5.5,15-10.9,30-16.4,44.9c-4.9,13.4-9.6,26.3-11.9,40.4c-2.2,13.5-2.9,27.3-2.6,41.1c0.4,25,3.2,50.2,12.1,73.7
				c8.6,22.7,21.4,44.5,38.2,62.3c5.7,6,12,11.2,18.8,15.9c5.9,4,11,9.3,10.9,16.7c0,6.2-2.7,12.6-4.3,18.5
				c-2.7,9.5-3.9,19.1-4.4,29c-1.5,24.9,1,49.9,3.7,74.7c1.3,12.2,2.7,24.4,3.7,36.7c0.4,4.8,0.7,9.6,1,14.4h3.6
				c0-2.3,0-4.5-0.2-6.6c-0.6-8.4-1.4-16.8-2.3-25.2c-1.6-16-3.5-32-4.8-48.1c-1.3-15.9-1.8-31.9-0.8-47.8c0.7-12,3.4-23,6.6-34.5
				c1.9-6.6,3.1-13.2,0.2-19.7c-3.9-8.6-14.2-13.1-21.1-19c-19.2-16.5-33.1-39.6-42.9-62.6c-10.1-23.8-13.3-49.1-14.1-74.8
				c-0.5-14.5,0.2-29.1,2.4-43.4c2.2-14.1,7-27.1,11.9-40.4c11-29.7,22-59.4,33.6-88.8c11.1-28.2,16-58.4,23.9-87.6
				c6-22.3,15.9-42.3,27.9-62c11.3-18.6,23.3-35.9,26-57.9c3.4-27.8-4.4-54.5-10.5-81.4H190.7z"/>
		</g>
		<g>
			<path fill="#B6AFA5" d="M122.8,592.6c2.6,2.9,5.5,5.4,8.4,7.9c6,5.1,12.5,9.9,16.9,16.5c5.6,8.2,4.2,16.9,2,26
				c-2.7,11-5.3,22.1-6.7,33.3c-1.5,12.5-0.4,24.7,0.7,37.2c1.3,13.8,2.4,27.6,3.2,41.4c0.8,13.7,2.7,27.3,4.1,41
				c0.1,1.3,0.3,2.7,0.4,4.1h4.1c-1.8-15.7-4-31.3-4.9-47c-1.5-26.9-7.1-54.3-3.2-81.2c1.7-11.7,4.8-23.2,7.6-34.7
				c1.7-7.2,0.2-14.8-3.6-21.1c-3.8-6.4-10-11-15.7-15.6c-3.3-2.6-6.6-5.3-9.8-8.1c-2.9-2.6-6.7-5.7-8.8-9c-0.2-0.3-0.7,0-0.5,0.3
				C119,586.7,120.3,589.8,122.8,592.6z"/>
		</g>
		<g>
			<path fill="#B6AFA5" d="M147.8,586.2c4.8,2.3,10.1,3.6,14.9,6.1c8.2,4.3,12.9,10.9,13.2,20.1c0.2,8.3-1.9,16.6-2.8,24.8
				c-1.4,13,0.4,26,2.1,38.9c3.4,26.3,2.1,53.4,1.1,79.8c-0.5,14.4-2.4,29.4-1.8,44h3.9c-0.7-15.9,1.2-32.1,1.8-48
				c1-27.9,1.4-55.7-2.2-83.4c-1.6-12.6-2.1-24.8-0.4-37.4c1.1-7.6,2.9-15.6,1.6-23.3c-1.2-7.1-5.3-12.4-11.2-16.4
				c-4.5-3.1-9.6-4.5-14.6-6.3c-2.8-1-5.6-2.3-8.3-3.7c-2.6-1.3-6.1-2.6-8.4-4.3c-0.3-0.3-0.8,0.2-0.5,0.5
				C140.1,581,142.9,583.9,147.8,586.2z"/>
		</g>
		<g>
			<path fill="#B6AFA5" d="M175.6,597.5c0.1,3,0.8,6,1.4,9c0.6,2.7,1,6.2,3.3,7.9c0.5,0.4,1.4,0,1.5-0.6c0.5-2.4-0.8-4.8-1.4-7.1
				c-0.8-3.2-1.3-6.5-2.4-9.6C177.5,595.9,175.5,596,175.6,597.5L175.6,597.5z"/>
		</g>
		<g>
			<path fill="#B6AFA5" d="M174.5,597.1c-0.1-0.1-0.1-0.2-0.2-0.3c-0.3-0.3-0.6-0.3-1-0.1c-0.5,0.2-0.8,1.5-0.6,1.8
				c0.4,1.2,1,2.3,1.5,3.4c0.7,1.4,1.4,2.7,2.1,4.1c0.6,1,1,2.2,2.1,2.7c0.7,0.3,1.5-0.3,1.7-1c0.4-1.7-1.7-4.4-2.5-5.8
				c-0.6-1-1.2-2.1-1.8-3.1c-0.2-0.4-0.5-0.8-0.7-1.3c-0.1-0.2-0.3-0.4-0.5-0.5c-0.7-0.4,0.1,0.4-0.2,0.8c-0.3,0.1-0.6,0.3-0.9,0.4
				c0,0,0,0-0.1,0C174,598.5,174.9,597.8,174.5,597.1L174.5,597.1z"/>
		</g>
		<g>
			<path fill="#B6AFA5" d="M169.7,595.8c10.9-0.5,7.2,21.7,6.5,27.8c-0.1,0.6,0.8,0.7,1.1,0.3c4.1-5.5,3.6-13.9,2.5-20.4
				c-0.9-5.5-4.2-10.6-10.1-8.2C169.4,595.3,169.4,595.8,169.7,595.8L169.7,595.8z"/>
		</g>
		<g>
			<path fill="#B6AFA5" d="M178.3,601.5c-0.1,4-0.7,8.5,1,12.3c0.2,0.4,0.9,0.4,1.1,0c1.6-3.8,1.2-9.2-1.1-12.6
				C179,600.8,178.3,601,178.3,601.5L178.3,601.5z"/>
		</g>
		<g>
			<path fill="#B6AFA5" d="M175.3,800c0-3.6,0.1-7.1,0.3-10.7c0.6-9.4,2.6-19.4,1.2-28.7c-0.2-1.1-2-1.1-2.2,0
				c-1.5,9.4-1.8,19.3-2.5,28.7c-0.2,3-0.6,6.8-0.7,10.7H175.3z"/>
		</g>
		<g>
			<path fill="#B6AFA5" d="M176.3,754.8c-0.9,2.8-1,5.8-1.4,8.7c-0.3,2.8-1,6-0.1,8.8c0.3,1,1.6,0.9,1.9,0c1-2.7,0.7-5.9,0.9-8.8
				c0.2-2.9,0.5-5.8-0.4-8.7C177.2,754.2,176.5,754.3,176.3,754.8L176.3,754.8z"/>
		</g>
		<g>
			<path fill="#B6AFA5" d="M192,4.5c-0.3-1.5-0.6-3-0.9-4.5h-3.7c0.2,1.2,0.5,2.4,0.7,3.6c3.6,18.2,8,36.4,9.6,54.9
				c1.6,17.7-0.5,35.3-7.8,51.6c-6.8,15.1-18.7,27.1-23.4,43.3c-0.1,0.4,0.4,0.5,0.5,0.1c6.3-17.1,20.7-29.9,27.8-46.6
				c6.5-15.3,7.8-32,6.5-48.3C199.9,40.3,195.5,22.4,192,4.5z"/>
		</g>
		<g>
			<path fill="#B6AFA5" d="M200.7,46c-0.7,1-1.4,1.2-1.9,2.6c-0.9,2.3-0.9,5.1-1,7.5c-0.1,3.9-0.1,10.2,2.4,13.5
				c0.6,0.7,1.8,0.3,1.6-0.7c-1-3.8-0.7-7.9-0.8-11.8c0-0.1-0.1-0.1-0.1,0c-0.1,3.9,0.2,8-0.8,11.8c0.6,0.1,1.1,0.2,1.7,0.2
				c-0.2-4-1.3-7.9-1.5-11.9c-0.1-2.2,0-4.4,0.2-6.6c0.1-0.8,0.2-3.6,0.7-4.4C201.4,45.9,200.9,45.7,200.7,46L200.7,46z"/>
		</g>
		<g>
			<path fill="#B6AFA5" d="M195.6,28c-1.3,6.9-0.3,13.5,1,20.3c1.7,8.3,2.6,16.9,4.6,25.1c0.2,0.8,1.5,0.8,1.6,0
				c1.3-6.7-0.8-14-2.2-20.5c-1.8-8.2-3.5-16.5-4.3-24.9C196.3,27.7,195.7,27.5,195.6,28L195.6,28z"/>
		</g>
		<g>
			<path fill="#B6AFA5" d="M226.8,41.1c0.9,7,2.3,13,4.5,19.7c2.5,7.8,2.7,15.3,1,23.3c-1.5,7.5-4.8,14.6-8.8,21.1
				c-3.7,6-9,10.2-13.1,15.8c-0.3,0.5,0.3,1.1,0.8,0.8c6.1-3.7,10.3-7.7,14.4-13.6c4.4-6.5,7.6-14,9.5-21.6c1.7-6.7,2-13.6,0.8-20.4
				c-1.5-8.7-7.3-16.4-8.5-25.2C227.5,40.6,226.8,40.7,226.8,41.1L226.8,41.1z"/>
		</g>
		<g>
			<path fill="#B6AFA5" d="M107,371.8c-1.9,3.7-3.8,6.9-5.1,10.9c-1.6,4.9-2.2,10.1-3.1,15.2c-1.6,9.7-4.3,19.2-5.6,29.1
				c-1.4,10.5-1.9,21-1.4,31.6c0.2,4.8,0.8,9.6,1.5,14.4c0.7,4.8,0.6,9.8,2.2,14.5c0.2,0.7,1.1,0.7,1.4,0c2.5-7.9-0.6-17.1-1.2-25.1
				c-0.8-10-0.5-20,0.4-29.9c1-10.3,3.6-20.2,5.3-30.3c0.7-4.5,1.4-9.1,2.2-13.6c1-5.3,1.8-11.5,4-16.4
				C107.8,371.7,107.2,371.4,107,371.8L107,371.8z"/>
		</g>
		<g>
			<path fill="#B6AFA5" d="M276.3,179.8c0.6,4.5,0,9.2,0.7,13.8c0.8,5.8,2.2,11.4,3.8,17c2.9,10.3,5.8,20.6,9,30.7
				c3.1,9.8,6.5,19.5,8.8,29.6c1.9,8.6,1,19.5,6.1,26.9c0.5,0.7,1.4,0.2,1.3-0.5c-1.4-8.5-1.8-17.1-3.3-25.6
				c-1.8-10.1-5.3-19.9-8.5-29.6c-6.7-20.5-12.4-41.3-17.1-62.3C276.8,179.4,276.2,179.5,276.3,179.8L276.3,179.8z"/>
		</g>
		<g>
			<path fill="#B6AFA5" d="M290.6,242.2c-1.2,4.1-0.3,8.2,0.6,12.3c1.1,4.8,2.3,10.3,4.7,14.7c0.5,0.9,1.8,0.5,1.8-0.5
				c0.1-4-1.5-7.9-2.6-11.7c-1.4-4.9-2-10-3.6-14.8C291.3,241.8,290.7,241.7,290.6,242.2L290.6,242.2z"/>
		</g>
		<g>
			<path fill="#B6AFA5" d="M294.3,251.7c2.5,12.5,6.7,24.7,8.7,37.4c1.2,7.5,2.4,15.1,3.6,22.6c0.6,3.8,1.1,7.5,1.7,11.3
				c0.7,4.1,2.3,8.1,2.6,12.2c0,0.4,0.6,0.4,0.6,0c0.1-7.1,0-13.6-0.9-20.6c-1.1-8.2-2.4-16.3-3.7-24.5c-1.2-7.8-3.5-15.2-5.4-22.9
				c-1.4-5.4-1.9-12-6.4-15.8C294.7,251,294.2,251.3,294.3,251.7L294.3,251.7z"/>
		</g>
		<g>
			<path fill="#B6AFA5" d="M229,272.2c2.1,1.9,4.6,3.3,6.7,5.1c3.1,2.6,5.3,6.2,6.8,9.9c3,7.5,1.5,17.3,1.2,25.2
				c-0.3,9-0.8,17.9-0.8,26.9c0,5.5-1.5,12.1,2.5,16.6c0.2,0.3,0.7,0.1,0.7-0.3c0-17.6,1.2-35.2,1.4-52.8c0.1-7.5-0.1-14.1-3.8-20.7
				c-2.8-4.9-8.5-10.3-14.5-10.3C229,271.7,228.8,272,229,272.2L229,272.2z"/>
		</g>
		<g>
			<path fill="#B6AFA5" d="M56.4,0h-2.9c1,13.9,2,27.9,2.6,41.9c0.7,15,0.6,30.1-1,45c-1.6,16-4.2,31.7-5.1,47.7
				c-1.9,32.7-0.4,65.4-0.1,98.1c0.2,16.4-0.3,32.7-0.9,49c-0.6,16,0.6,32.1,1.9,48.1c1.3,15.8,3.3,31.8,2.8,47.8
				c-0.5,16-3.9,31.9-6.4,47.7c-5,31.5-3,63.7-3,95.5c0,26.9,0.8,53.6,2.1,80.5c0.4,8.8,0,17.3-0.8,26.1c-1.3,14.9-1,30-0.2,44.9
				c1.6,29.6,6.3,59,7.6,88.5c0.6,12.9-0.1,26.1,0.2,39.2h3.2c-0.2-13.7,0.5-27.5-0.1-40.8c-1.3-29.7-6-59.1-7.6-88.8
				c-0.8-14.9-0.9-29.9,0.5-44.8c0.8-8.5,1-16.9,0.6-25.4c-1.3-27.2-2-54.2-2-81.4c0-32.8-1.5-65.7,3.8-98.2
				c2.4-14.9,5.2-29.8,5.7-44.9c0.5-15.9-1.7-32-3-47.8c-1.3-16-2.3-32.1-1.7-48.1c0.6-16.4,0.9-32.7,0.8-49
				c-0.3-32.7-1.7-65.4,0.2-98.1c0.9-15.4,3.3-30.5,5-45.8c1.6-14.9,1.5-30,0.9-45C58.9,27.9,57.6,13.9,56.4,0z"/>
		</g>
		<g>
			<path fill="#B6AFA5" d="M128.4,5.7c-0.2-1.9-0.5-3.8-0.7-5.7h-3.3c1.5,12.3,2.8,24.6,4.6,36.9c4.5,30.1,11.4,59.3,9,90
				c-1.3,16-5.7,31.2-10.3,46.6c-4.5,15.1-9.2,30.1-13.9,45.1c-9.3,29.9-18.5,59.9-25.2,90.6C81.6,340,77.3,371.7,73.1,403
				c-4.2,31-7,62.1-7.3,93.4c-0.2,22.8,6.8,43.3,17,63.5c9.8,19.5,21.5,38.3,26.6,59.7c3.9,16.2,1.7,31.1-1.7,47.1
				c-4.2,19.3-6,39.1-6.3,58.8c-0.4,24.9,1.7,49.9,5.6,74.5h3.8c-7.1-47-9.2-94.7,2.3-141.3c11.2-45.3-21.8-82-36.7-121.7
				c-9.7-26-7.3-53.9-5.4-81.1c2.3-31.8,6.9-63.4,11.9-94.9c4.9-31.4,11-62.3,19.6-92.9c8.5-30.2,18.4-60,27.4-90
				c5.6-18.6,10.7-36.9,11.9-56.4c1.2-19.2-1.2-38.5-4.5-57.4C134,44.7,130.7,25.4,128.4,5.7z"/>
		</g>
		<g>
			<path fill="#B6AFA5" d="M77,721.2c-3.8-16.2-6.9-32.6-8.4-49.1c-1.1-12.5-1-25.1-1.6-37.6c-0.6-12.6-1.3-25.1-2-37.7
				c-1.6-27.2-3.3-54.4-4.3-81.7c-1-26-1.6-51.9,2.7-77.6c1.8-10.9,3.9-21.8,5.1-32.8c1.3-12.1,1.5-24.2,1.4-36.3
				c-0.4-28.5,3.8-57,7.1-85.2c3.8-32.2,7.7-64.4,10-96.7c2.8-38.5,1.9-77.1,1.5-115.6C88.3,50.9,88,31,87.7,11.2
				c0-3.7-0.1-7.4-0.2-11.2h-3.1c0,0.4,0,0.8,0,1.2c0,16.6,0.3,33.1,0.4,49.7c0.3,33,1.2,66,0.5,98.9c-1.4,64.7-12.7,128.6-18.2,193
				c-2,23.9,0.1,47.7-3.4,71.6c-1.6,10.7-3.8,21.3-5.3,32.1c-1.7,13.1-2.1,26.2-2,39.5c0.4,52.3,5.4,104.5,7.4,156.8
				c0.6,16.4,1.1,32.7,3.6,49c3,19.3,7.8,38.3,12.9,57.1c2.5,9.2,5.1,18.3,6.7,27.7c1.3,7.8,2,15.7,2.6,23.5h3.4
				c-0.7-10.6-1.8-21.3-4-31.8C85.9,752.4,80.8,736.9,77,721.2z"/>
		</g>
		<g>
			<path fill="#B6AFA5" d="M20.2,453.7c-0.8,5.5-1.3,10.9-1.6,16.5c-0.3,5.3-1.2,11.5,0.5,16.6c0.3,0.8,1.6,1,1.8,0
				c1.2-5.3,0.5-11.2,0.7-16.6c0.2-5.6,0.3-11-0.5-16.5C21,453.2,20.2,453.2,20.2,453.7L20.2,453.7z"/>
		</g>
		<g>
			<path fill="#B6AFA5" d="M20.7,449c-1.4,5.5-0.8,11.3-0.4,16.9c0.4,6.1-0.4,12.8,0.8,18.9c0.2,0.9,1.4,0.7,1.6,0
				c2.1-5.2,1.1-11.6,0.7-17c-0.4-6.2-0.6-12.6-1.6-18.8C21.7,448.4,20.9,448.5,20.7,449L20.7,449z"/>
		</g>
		<g>
			<path fill="#B6AFA5" d="M20.1,452.5c0.6,7.6,0.3,15.5,1.8,22.9c0.1,0.7,1.3,0.7,1.5,0c1.3-7.6-1.5-15.4-2.3-22.9
				C21,451.9,20.1,451.8,20.1,452.5L20.1,452.5z"/>
		</g>
		<g>
			<path fill="#B6AFA5" d="M321.9,257.8c-5-13.6-11.5-26.6-16.9-40c-4.1-10.3-6.8-20.7-9-31.5c-2-10-4.9-19.7-9.5-28.7
				c-5-9.7-13-17.3-19.8-25.7c-7.8-9.6-12.1-19.6-13.6-31.8c-1.3-10.7-1.1-21.6-0.8-32.4c0.3-11.3,0.1-22.6,0-33.9
				c0-11.2-0.3-22.5-0.7-33.7h-3.5c0.5,16.8,1,33.6,0.9,50.4c-0.2,26.1-4.9,55.7,10.9,78.5c8,11.5,18.7,20.6,24.9,33.4
				c6.2,12.7,7.4,26.7,11.1,40.1c3.7,13.5,9.8,26.3,15.4,39.1c6.2,14,11.4,28.1,14.5,43.2c3.2,15.6,4.6,31.6,5,47.5
				c0.4,15.7-0.9,31.2-1.4,46.8c-0.6,15.4-0.3,30.9-1.6,46.3c-1.3,15.1-5.3,29.3-10.1,43.6c-8.2,24.7-18.8,48.9-34.3,70
				c-8,10.9-17.6,21.1-28.6,29c-8.6,6.2-17.6,11.9-25.9,18.4c-12.3,9.6-21.6,20.9-26.6,35.7c-3.3,9.8-4.3,20.4-5.4,30.7
				c-1.3,12.1-1.9,24.3-2.4,36.5c-0.5,11.7-0.8,23.4-1.3,35c-0.4,10.7-0.4,20.5,2.2,30.9c3.9,15.3,10.9,29.6,14.7,44.7h3.9
				c-4.7-19.9-15.3-38.3-17.2-58.9c-0.6-6.7,0.2-13.6,0.4-20.4c0.3-8,0.6-16,0.9-24c0.6-15.3,1.3-30.5,2.9-45.7
				c1.4-13.1,3.3-26.2,9.4-38.1c4.6-8.9,11.7-16.1,19.4-22.3c8.6-7,18.1-12.8,27-19.3c10.2-7.3,19-16.5,26.8-26.3
				c15.6-19.8,26.3-43,34.8-66.5c4.7-13,9.2-26.2,11.5-39.9c2.5-14.7,2.7-29.8,2.9-44.7c0.2-15.6,1.6-31.2,1.8-46.8
				c0.3-15.6-0.5-31.2-2.5-46.6C330.1,286,327,271.6,321.9,257.8z"/>
		</g>
		<g>
			<path fill="#B6AFA5" d="M330.6,240.6c-4.8-16-9.7-32-14.5-48c-3.1-10.3-6.3-20.5-10.7-30.4c-4.2-9.3-9.2-18.3-13.9-27.4
				c-5-9.6-9.5-19.4-12.9-29.7c-3.3-10-4.9-20.6-6.5-31c-3.9-24.5-5.7-49.3-6.3-74.2H263c0.1,8.7,0.4,17.4,0.9,26.1
				c1.5,27.5,3.6,56.9,12.5,83.2c8.8,26,25.5,48.4,33.4,74.7c9.6,31.8,20,63.5,28.7,95.5c7.7,28.5,7,58.1,3.7,87.2
				c-1.6,14.6-3.8,29.1-5.6,43.6c-1.9,14.6-2.9,29.2-4.6,43.8c-3,25.7-8.1,51.5-20.5,74.4c-6.4,11.7-14.8,22.1-24.7,31.1
				c-10.9,9.9-21.2,20.5-31.3,31.4c-7.5,8.1-15,16.3-22.5,24.5c-6.5,7-12.8,13.6-16.6,22.5c-7.1,16.8-6.8,35.6-5.8,53.4
				c0.5,8.9,1.3,17.7,1.6,26.6c0.4,10.2-0.1,20.4-0.2,30.6c-0.2,17.4,0.4,35,5.7,51.5h3.2c-7.4-23.6-5.1-49.8-5-74.1
				c0.1-23.8-4.7-47.7-0.7-71.3c2.1-12.7,7.6-23.1,16.4-32.5c10-10.7,19.8-21.6,29.8-32.3c18.6-19.9,40.6-36.5,53.8-60.8
				c11.7-21.6,16.6-46.2,19.7-70.3c1.9-14.3,2.8-28.7,4.5-43c1.7-14.7,3.9-29.2,5.7-43.9c3.4-28.2,4.6-56.4-1.2-84.4
				C340.7,271.6,335.2,256.1,330.6,240.6z"/>
		</g>
		<g>
			<path fill="#B6AFA5" d="M357.2,289.7c-4.2-14.5-8.1-29.1-11.9-43.7c-3.8-14.6-7.9-29.2-13.7-43.1c-5.5-13.2-12.3-25.8-17.6-39.1
				c-7-17.3-13.3-35-17.6-53.1c-4.4-18.5-5.6-37.7-5.6-56.7c0-17.9,1.2-35.9,3.5-53.9h-3.1c-4.7,32.6-5.6,65.7-0.6,98
				c4.1,26.5,13.6,52.3,24.1,76.9c5.8,13.7,13.1,26.7,18.1,40.7c5.2,14.3,8.7,29.1,12.4,43.8c7.3,28.7,18.4,57.1,18.9,87
				c0.3,15.5-4.4,30.5-8.5,45.3c-4.2,14.9-8.6,29.8-11.7,45c-3.1,15.4-5.2,30.9-8.5,46.3c-3.2,15.2-7.1,30.4-12,45.2
				c-8.6,26.3-26.4,45.9-43.7,66.8c-11.4,13.8-20.7,27.6-25.5,45c-4.7,17.2-5.6,35.2-7.1,52.9c-1.7,19.8-5.8,39.3-7.9,59.1
				c-1.7,16-2.4,32-1.9,48h3.3c-0.5-25.2,1.9-50.6,6-75.4c2.1-12.6,3.7-25.1,4.7-37.9c1.1-13.3,2.2-26.7,5-39.8
				c2.8-12.9,7.6-25.3,15.5-35.9c8-10.8,16.9-20.9,25.5-31.3c8-9.6,15.5-19.6,21.4-30.6c6.6-12.3,10.4-26.1,14.1-39.5
				c8.2-30.3,11.4-61.6,19.3-91.9c3.9-15.1,8.6-29.9,12.3-45.1c3.4-13.9,4-27.6,2.2-41.8C364.7,316.8,361.1,303.2,357.2,289.7z"/>
		</g>
		<g>
			<path fill="#B6AFA5" d="M366.9,277.7c-4.4-15.2-8.1-30.7-12.2-46c-8.2-31.2-16.4-62.5-23.4-94c-3.4-15.3-6.5-30.6-8.2-46.3
				c-1.6-15.1-2.3-30.4-2.5-45.6c-0.3-15.3-0.1-30.6,0.1-45.9h-2.7c-0.4,15.9-0.7,31.8-0.5,47.8c0.2,15.8,1.1,31.7,2.8,47.4
				c1.7,15.3,4.9,30.2,8.3,45.2c7,31.5,15.2,62.8,23.4,94.1c4,15.3,7.8,30.6,12.1,45.8c4.1,14.5,8.4,28.9,11.4,43.6
				c3.1,15.1,4.3,30.3,2.5,45.6c-1.9,15.7-6.8,30.9-11.6,45.9c-4.8,15-9.6,30-13.2,45.3c-3.6,15.4-5.7,31.1-8.5,46.7
				c-1.3,7.4-2.9,14.8-4.7,22.2c-2,7.8-6,15.3-9.7,22.5c-6.6,13.1-14.5,25.7-21.9,38.4c-7.2,12.3-14.5,24.7-18,38.6
				c-3.4,13.4-3.1,27.5-1.9,41.2c1.2,14.3,3.7,28.5,5,42.8c1,10.8-0.1,21.4-1,32.2c-1,11.4-1.8,22.8-1.2,34.3
				c0.3,6.9,1.3,14.1,4,20.6h3.8c-3.5-7.5-4.2-16.4-4.4-24.5c-0.3-11.4,0.8-22.9,1.8-34.3c1-11.2,1.3-22,0.1-33.3
				c-1.5-14.3-3.9-28.5-4.9-42.9c-1-14.6-0.2-29.3,4.6-43.3c4.9-14.2,13.8-27.3,21.4-40.2c7.5-12.7,14.9-25.4,20.9-38.9
				c6.2-13.8,8.5-28.8,11-43.6c2.6-15.6,5.1-31.3,9.2-46.6c4.1-15.1,9-30,13.7-45c4.4-14.2,8.1-28.6,9.5-43.4
				c1.3-14.4-0.7-28.8-3.6-42.9C375.4,306.5,371,292.2,366.9,277.7z"/>
		</g>
		<g>
			<path fill="#B6AFA5" d="M373.4,184.9c-5.2-32.4-11.5-64.7-14.1-97.4C357,58.4,357,29.2,357.1,0h-2.7c-0.3,16-0.5,31.9-0.3,47.9
				c0.5,31.3,3.7,62,8.6,92.9c10.4,65.2,21.9,130.6,26,196.5c1,16.2,1.4,32.7-0.4,48.8c-1.7,15.4-6.1,30.5-10.1,45.4
				c-4,14.9-6.4,30-9.5,45.1c-3.1,14.9-7.6,29.5-12.7,43.9c-5.1,14.6-11.6,28.9-15.6,43.9c-3.7,14.1-5.3,28.8-5.6,43.4
				c-0.3,15.5,1.6,30.9,3,46.4c1.4,15.9,2.1,31.9,2.1,47.8c0,23.8-3,46.8-6.4,70.2c-1.4,9.3-2,18.5-2,27.7h3.3
				c0-3.5,0.1-7.1,0.3-10.6c1-15.8,4.6-31.4,6.3-47.1c3.5-31.8,2.3-63.9-0.7-95.6c-2.9-31.2-3.6-61.7,6.3-91.9
				c4.8-14.7,11.1-28.9,16-43.7c4.8-14.6,8.6-29.4,11.2-44.5c5-29.4,16.3-57.8,18.4-87.7c2.3-32.6-2.1-65.5-5.7-97.8
				C383.4,248.9,378.5,216.9,373.4,184.9z"/>
		</g>
	</g>
	<g>
		<g>
			<path fill="#B6AFA5" d="M488.3,717.1c1,27.6,2,55.2,2.3,82.9h3.2c-0.6-63.6-4.5-127.2-4.5-190.9c0-66.3-0.1-132.5-0.2-198.8
				c-0.1-29.7-0.1-59.3-0.7-88.9c0-0.8-1.3-0.8-1.3,0c-1.5,65.9-0.8,132-0.8,198C486.2,585.3,486,651.2,488.3,717.1z"/>
		</g>
		<g>
			<path fill="#B6AFA5" d="M511.4,651c7.5-65.3,9.2-131.1,8.3-196.8c-1-65.7-4.7-131.4-8.2-197c-1.6-30.1-1.9-59.7,0.6-89.7
				c1-12.1,2.5-23.4,1.1-35.5c-1.1-9.9-3.3-20.1-2.3-30.2C514.4,68,514.4,34,514,0h-2.1c0,24.1,0.2,48.1-0.8,72.1
				c-0.6,13.4-3.2,27.1-2.1,40.4c0.8,10.4,2.9,20.6,3.2,31c0.2,6.1-1.1,12.4-1.6,18.5c-0.7,7.6-1.3,15.2-1.9,22.9
				c-1.1,14.4-1.4,28.9-1,43.3c0.8,32.7,3.3,65.5,4.9,98.1c3.2,65.4,5.6,130.9,4.3,196.4c-0.7,32.9-2.4,65.7-5.2,98.4
				c-2.9,33-8.9,65.7-8.9,98.8c0,21.1,1.8,42.1,4.2,63.1c0.6,5.6,1.3,11.2,2.1,16.8h2.6c0-0.4-0.1-0.7-0.1-1.1
				c-1.8-16.4-3.6-32.8-4.7-49.3c-1.1-16.4-1.4-32.8-0.6-49.3C506.9,683.8,509.5,667.4,511.4,651z"/>
		</g>
		<g>
			<path fill="#B6AFA5" d="M655.4,769.9c0.3-5.1,1.9-10.7,3.3-15.6c1.8-6.4,4.3-13.3,8.5-18.6c4.6-5.8,9-0.7,11,4.4
				c2.6,6.5,3,13.8,3.1,20.7c0.1,5.9-0.3,12-2,17.6c-3,10.1-14.2,11-20.2,3.1c-3.2-4.2-2.2-10.9-2.1-15.9c0.1-2.8,0.6-6.1,1.1-8.9
				c0.5-2.5-0.3-1.7-0.5-0.6c-1,4.6-2,9.2-3,13.8c-0.1,0.6,0.8,0.8,0.9,0.2c1-4.9,2.6-10.2,2.8-15.2c0-0.3-0.4-0.3-0.5-0.1
				c-2.8,9.2-7.1,20.4-0.5,29c4.2,5.4,11.4,7.4,17.6,4.5c5.6-2.7,7.4-9.6,8.2-15.2c1.1-7.9,0.9-16-0.2-23.9c-1-7.3-6.9-26.4-17.1-16
				c-4.7,4.8-7,12.1-8.9,18.3c-1.8,5.8-3.8,12.4-2.3,18.5C654.6,770.5,655.3,770.4,655.4,769.9z"/>
		</g>
		<g>
			<path fill="#B6AFA5" d="M653.8,800c-0.7-1-1.4-1.9-1.8-2.6c-3.5-6.3-4.6-13.9-4.7-20.9c-0.1-13.7,2.8-27.8,6.8-40.8
				c2.3-7.7,5.4-15.4,8.7-22.8c2.6-5.8,6.5-14.7,13.4-16.4c4.7-1.2,8.4,4.3,9.6,8c1.6,4.9,0.9,10.6,0.5,15.7
				c-0.9,11.7,0,23.2,1.8,34.8c2.4,15.3,2.2,33.2-7.9,45.1h2.5c9.6-10.7,10.3-27.1,8.6-41.9c-1.5-13.2-3.1-25.9-1.9-39.3
				c0.8-8.9,1.1-20.2-8.3-24.7c-13.3-6.4-21.9,18.8-25,27.1c-4.8,12.8-8.8,25.4-10.5,38.9c-1.8,13.7-2.4,27.5,4.7,39.8H653.8z"/>
		</g>
		<g>
			<path fill="#B6AFA5" d="M631.6,800h3.7c-1.4-4.8-2.1-9.8-2.4-14.5c-0.7-11.9,1.5-23.9,3.7-35.6c2.7-13.9,5.3-27.9,9-41.6
				c3.5-13,8.2-26,15.4-37.4c5.2-8.2,12.6-17.6,22.3-20.6c12.9-4,18.7,12.5,19.7,22.1c1.2,11.3-0.8,22.8-2.2,33.9
				c-1.3,9.9-1.5,19.6-0.8,29.6c1,12.7,3.1,25.2,3.3,37.9c0.2,9.9-2.2,18.7-6.7,26.3h3.7c5.2-9.2,6.3-19.6,6-30.1
				c-0.5-15.9-3.8-31.5-3.8-47.4c0-11.3,2.4-22.6,3.4-33.8c1.3-14.3-0.4-45.7-22.5-41.7c-8.4,1.5-15.6,9.4-20.5,15.8
				c-6.8,8.8-11.5,18.7-15.4,29.1c-6.5,17.2-9.6,35.5-13.4,53.4c-2.9,13.7-5.5,27.5-4.8,41.6C629.6,791.3,630.3,795.7,631.6,800z"/>
		</g>
		<g>
			<path fill="#B6AFA5" d="M683.1,800c0.9-1.4,1.5-2.9,1.9-4.5c0.1-0.3-0.3-0.5-0.5-0.3c-1.6,1.5-3.2,3.2-4.8,4.7H683.1z"/>
			<path fill="#B6AFA5" d="M652,800c-1.9-3.1-3.2-6.6-3.8-9.6c-0.1-0.4-0.6-0.2-0.6,0.1c-0.3,3.1,0.4,6.5,1.9,9.5H652z"/>
		</g>
		<g>
			<path fill="#B6AFA5" d="M681.7,800c0.8-1.3,1.6-2.7,2.5-4c0.1-0.1-0.1-0.2-0.2-0.1c-1.4,1.4-2.8,2.8-4.3,4.1H681.7z"/>
			<path fill="#B6AFA5" d="M651.6,800c-1.1-1.2-1.8-2.5-1.8-4c0-0.4-0.7-0.4-0.7,0c0,1.6,0,2.9,0.4,4H651.6z"/>
		</g>
		<g>
			<path fill="#B6AFA5" d="M680.7,800c1.5-1.4,2.9-2.9,4.3-4.6c1.8-2.3,2.1-4.1,3.4-6.8c0.1-0.2-0.2-0.3-0.3-0.2
				c-2.7,4.3-7,8.8-11.8,11.6H680.7z"/>
			<path fill="#B6AFA5" d="M655,800c-2.6-1.8-4.3-4.5-6.4-6.8c-0.2-0.3-0.7,0-0.7,0.3c0,2.6,1,4.8,2.5,6.5H655z"/>
		</g>
		<g>
			<path fill="#B6AFA5" d="M650,800h2.1c-1.5-1.8-2.7-3.8-3.4-5.6c-0.1-0.4-0.7-0.2-0.6,0.2C648.7,796.6,649.2,798.4,650,800z"/>
		</g>
		<g>
			<path fill="#B6AFA5" d="M680.9,800c0.8-0.6,1.5-1.2,2.2-1.9c3.8-3.7,5.9-8.9,7.2-13.9c1.9-7.1,0.3-13.3-0.1-20.4
				c0-0.1-0.1-0.1-0.1,0c-0.3,5.4-1,11.5-2,16.9c-0.8,4.4-2.5,8.5-5,12.2c-2.1,3.2-5,5.5-8.2,6.9H680.9z"/>
			<path fill="#B6AFA5" d="M653.8,800h5.9c-1.1-0.5-2.1-1-3.1-1.7c-8.6-5.8-9.2-18.4-9-27.6c0.2-9.7,1.5-19.9,3.5-29.3
				c0.1-0.4-0.4-0.5-0.5-0.1C645.9,758.1,637.9,786.5,653.8,800z"/>
		</g>
		<g>
			<path fill="#B6AFA5" d="M694.3,800h4.4c0.4-0.7,0.8-1.4,1.2-2.1c9.8-17.4,7.2-37.7,2.3-56.2c-0.1-0.5-0.9-0.4-0.9,0.1
				c0.1,17.6,5,34.3-3,51C697.2,795.3,695.9,797.7,694.3,800z"/>
			<path fill="#B6AFA5" d="M632.9,800h3.8c-0.6-1.3-1.1-2.7-1.6-4c-5.6-16.4-2.3-35.9,2.4-52.1c0.1-0.3-0.3-0.4-0.4-0.1
				c-1.8,4.4-3.6,8.3-4.8,12.9c-1.2,4.6-2,9.3-2.5,14.1c-1.2,9.7-0.2,19.8,3.1,29C632.8,799.8,632.9,799.9,632.9,800z"/>
		</g>
		<g>
			<path fill="#B6AFA5" d="M621.8,800c-0.4-2.7-0.6-5.5-0.7-8.2c0.3-0.2,0.4-0.6,0.4-1c1.5-31.3,7.7-62.6,18.8-92
				c8.2-21.8,16.7-45,32.1-62.9c5.6-6.5,13.2-13.8,22.2-14.4c12.5-0.8,19.2,14.2,20.6,24.2c0.8,5.9,0.4,12,0.1,17.9
				c-0.5,8-0.5,15.9-0.2,23.9c0.5,15.1,3.4,29.6,5.1,44.5c1.5,12.6,1.5,25.3-0.8,37.8c-2,10.7-6.3,20.5-11.1,30.1h4.1
				c5.8-12.3,10.3-25,11.8-38.6c1.4-12.6,0.2-25.4-1.6-37.9c-2.3-15.9-4.2-31.3-4.2-47.4c0-12.7,2.3-25.7-1.2-38.1
				c-2.4-8.4-8.9-16.9-17.6-19.3c-16-4.4-30.4,14.9-37.8,26.1c-5.5,8.2-9.4,17-13.3,26c-6.2,14.3-12.1,28.6-16.9,43.4
				c-6.1,18.9-9.8,39.2-11.7,59.3c-0.3,2.1-0.7,4.3-0.9,6.4c-0.9,6.9-0.9,13.5-0.1,20H621.8z"/>
		</g>
		<g>
			<path fill="#B6AFA5" d="M710.1,800c0.6-1.3,1.3-2.6,1.9-3.8c0-0.1-0.1-0.1-0.1-0.1c-0.9,1.3-1.8,2.6-2.7,3.9H710.1z"/>
			<path fill="#B6AFA5" d="M620.2,800h3.1c-0.5-2.4-0.9-4.8-1.2-7.2c-0.4-3.4-1.4-7.3-1.2-10.7c0-0.4-0.6-0.4-0.6,0
				c-0.4,3.7-1.3,6.9-1.1,10.7C619.4,795.2,619.7,797.6,620.2,800z"/>
		</g>
		<g>
			<path fill="#B6AFA5" d="M610.7,800c0.1-11.5,2.3-23.1,4.9-34.4c1-4.2,1.9-8.4,2.8-12.5c4.1-12.3,5.8-25.1,8.7-37.7
				c3.4-15.3,9.2-30.2,14.3-45c7.6-21.7,13.9-44.1,23.5-65.1c7.6-16.6,19-36.9,38.6-40.9c21.5-4.4,32.2,16.4,36,33.8
				c4.9,22.6,1.6,46.2,1,69c-0.4,16-0.3,32.1,0.7,48.1c0.9,15.5,1.6,30.9,0.4,46.4c-0.9,12.7-3.2,25.6-6.4,38.3h3.4
				c1.7-7.2,3.1-14.4,4.3-21.5c5-30.7,0.8-61.3,0.7-92.2c-0.1-15.9,0.6-31.8,1.3-47.7c0.4-9.7,0.7-19.3-0.3-29
				c-1.6-15.9-5.8-34.7-19.8-44.5c-12.8-8.9-29.3-4.1-40.2,5.2c-13.3,11.4-21.1,28.7-27.4,44.6c-8.1,20.2-14.3,41.2-21.5,61.7
				c-4.8,13.6-9.6,27.2-12.6,41.3c-0.3,1.3-0.6,2.7-0.8,4c-0.1,0.4-0.2,0.9-0.3,1.3c-2,8.2-3.7,16.4-5.5,24.6c-0.4,2-0.9,4-1.4,6
				c-0.3,1.1-0.7,2.1-1.1,3.2c-0.2,0.5-0.1,0.9,0.1,1.2c-2.7,11.4-5.3,22.8-6.4,34.5c-0.2,2.5-0.3,4.9-0.3,7.4H610.7z"/>
		</g>
		<g>
			<path fill="#B6AFA5" d="M588.5,800c-0.3-14.9,1.5-29.8,4.5-44.4c6.1-30.1,17.6-58.9,30.1-86.8c6-13.4,11.9-26.7,16.1-40.8
				c4.2-14.4,7.1-29.2,10-43.9c4.7-24.3,8.9-49.4,20.1-71.7c7.8-15.4,22-35.9,42.1-30.9c22.2,5.5,31.3,31.7,36.2,51.1
				c5.4,21.5,7.4,43.6,13.6,65c8.1,28.1,19.3,55.3,21,84.8c1.4,24.2-2.1,49.5-6.1,73.3c-2.5,14.9-5.7,29.7-9.9,44.3h3.5
				c1.3-4.6,2.5-9.1,3.6-13.7c5.7-23.6,9.3-47.8,11.2-72c1-12.4,1.7-24.8,0.7-37.2c-1.1-13.9-4.4-27.6-8.4-40.9
				c-4.1-13.8-8.9-27.3-12.8-41.1c-3-10.3-5-20.7-6.8-31.2c-3.7-21.3-6.9-43.7-17.7-62.7c-8.5-14.9-25.7-28.6-43.7-22.1
				c-16.5,6-26.6,24.8-33.1,39.9c-10.2,23.6-13.7,49.9-18.7,74.9c-3,14.7-6.4,29.4-11.2,43.6c-5,14.7-12.1,28.5-18.2,42.8
				c-11.8,27.4-21.8,55.7-26.7,85.1c-1.8,11-3,22.8-3,34.7H588.5z"/>
		</g>
		<g>
			<path fill="#B6AFA5" d="M493.6,787.1c0.3,4.3,0.6,8.6,0.8,12.9h3.3c-0.2-4.3-0.5-8.6-0.8-12.9c-0.8-9.7-1.8-19.4-3-29.1
				c-1.2-9.7-3.6-19.1-5.1-28.7c0-0.3-0.5-0.2-0.5,0.1c1.3,9.4,1.5,19.1,2.6,28.6C492,767.6,492.9,777.4,493.6,787.1z"/>
		</g>
		<g>
			<path fill="#B6AFA5" d="M494.4,800c0-5-0.3-9.9-1.4-14.7c-0.1-0.3-0.6-0.3-0.7,0c-1,4.8-1.3,9.7-1.4,14.7H494.4z"/>
		</g>
		<g>
			<path fill="#B6AFA5" d="M491.9,800h2.6c0-0.1,0-0.2,0-0.3c0-4.5-0.2-10.1-3.6-13.5c-0.2-0.2-0.5,0-0.4,0.3
				C491.7,791,491.9,795.4,491.9,800z"/>
		</g>
		<g>
			<path fill="#B6AFA5" d="M493.3,800c-0.1-1.5-0.1-3-0.2-4.5c0-0.5-0.7-0.5-0.8,0c-0.1,1.5-0.2,3-0.2,4.5H493.3z"/>
		</g>
		<g>
			<path fill="#B6AFA5" d="M570.7,800c0.2-2.7,0.5-5.3,0.7-7.9c1.1-12,1.5-23.6,1.2-35.7c0-0.5-0.7-0.5-0.7,0
				c-0.5,14.5-3.1,29.1-4.5,43.6H570.7z"/>
		</g>
		<g>
			<path fill="#B6AFA5" d="M695.1,368c-1.4-15.4-3.4-30.9-4.3-46.4c-0.8-14.8,2.2-29.2-0.3-44c-1.2-7-3.2-13.8-5-20.6
				c-2-7.5-3.5-15.1-5.2-22.6c-3.2-14-8.6-27.4-14.3-40.6c-6-13.9-13.6-27.6-16.7-42.5c-6.5-32.1,8.4-64.6,14.3-95.6
				c2.6-13.9,5.3-27.9,7.8-41.8c0.8-4.6,1.5-9.3,2-13.9h-3.5c-0.6,4.9-1.4,9.8-2.3,14.5c-2.3,12.9-5,25.6-7.2,38.5
				c-4.8,28-16.2,54.9-16.1,83.6c0,14.1,4.3,26.6,9.9,39.4c6.1,13.9,12.6,27.8,17.6,42.2c4.9,14.1,7.2,28.9,11.1,43.2
				c2,7.2,3.9,14.5,4.8,21.9c1.1,7.9-0.1,15.5-0.6,23.4c-1,15.5,1.5,31,3.1,46.3c0.7,6.8,0.8,13.6,1.8,20.3
				c1.1,6.9,3.5,13.6,6.1,20.1c5,12.8,10.6,25.4,10.4,39.5c-0.2,12.6-9.2,22.6-18,30.7c-17.4,15.9-37.5,29.9-46.9,52.4
				c-5.9,14.1-9.2,29.6-13.3,44.3c-4.4,15.8-8.8,31.5-13.6,47.2c-9.9,32.5-22.9,64-33.3,96.4c-5.1,15.9-9.4,32.1-12.5,48.6
				c-1.4,7.4-2.4,14.8-3.1,22.2c-0.8,8.1,0,15.8,0.1,23.8c0,0.4,0.6,0.4,0.6,0c-0.1-6.7,1.2-13.4,1.8-20.2
				c0.7-8.4,1.9-16.8,3.5-25.1c2.8-15.2,7-30.2,11.8-44.9c9.5-29.8,21.5-58.8,31.1-88.6c10-31,18.4-62.6,27.4-94
				c7.2-25.2,28.1-41.2,47.1-57.7c8.1-7.1,15.7-15,19.4-25.3c4.1-11.3,0.9-24.3-2.9-35.2C703,394.5,696.4,382.1,695.1,368z"/>
		</g>
		<g>
			<path fill="#B6AFA5" d="M661.9,278.8c-0.9-16.8-9-29.9-16.1-44.7c-8-16.5-14.3-33.7-18-51.7c-3.7-17.6-8.6-34.9-12.5-52.5
				c-4.2-19.3-3.3-38.3-1.1-57.8c2.1-18.2,3.6-36.5,5.5-54.8c0.6-5.8,1.2-11.5,1.8-17.3H619c-4.2,27.6-6.8,55.5-9.6,83.4
				c-1.8,18.4-0.5,35.9,3.7,53.8c2,8.4,4.4,16.7,6.5,25c2.3,9.1,3.8,18.3,5.9,27.4c3.9,16.7,10.5,32.8,17.9,48.2
				c3.9,8.1,8.8,15.7,11.7,24.2c2.9,8.4,3.2,17.5,3.2,26.3c-0.1,8.3-0.6,16.6-0.3,24.9c0.4,9.4,2,18.7,3.7,27.9
				c3.3,17.2,7.6,34.1,10.4,51.4c2.7,17.2,3.3,34.9-1.1,51.9c-4.6,17.4-16.4,32.4-25.6,47.7c-8.8,14.6-16.7,29.7-21.9,46
				c-5.5,17-9.2,34.6-13.3,52c-4.2,17.4-8.8,34.7-15.5,51.3c-7.1,17.6-14,35.3-20.5,53.1c-6.3,17.3-13.4,34.5-18.9,52
				c-4.8,15.3-6.7,31.5-7.3,47.5c-0.1,1.9-0.1,3.8-0.2,5.8h4c0.5-22.2,4-44.1,12-65.4c6.7-17.9,13.1-36,19.7-53.9
				c6.5-17.4,14.1-34.4,20.1-52c11.6-34.3,15-71.2,29.4-104.5c7-16.2,16.6-31.3,25.9-46.3c8.7-14,16.1-27.6,18.3-44.2
				c4.4-33.9-7.1-67.2-12.9-100.1C660.9,315.1,662.9,297.2,661.9,278.8z"/>
		</g>
		<g>
			<path fill="#B6AFA5" d="M699.9,391.5c0.9,7,2.3,13,4.5,19.7c2.5,7.8,2.7,15.3,1,23.3c-1.5,7.5-4.8,14.6-8.8,21.1
				c-3.7,6-9,10.2-13.1,15.8c-0.3,0.5,0.3,1.1,0.8,0.8c6.1-3.7,10.3-7.7,14.4-13.6c4.4-6.5,7.6-14,9.5-21.6c1.7-6.7,2-13.6,0.8-20.4
				c-1.5-8.7-7.3-16.4-8.5-25.2C700.5,391,699.8,391.1,699.9,391.5L699.9,391.5z"/>
		</g>
		<g>
			<path fill="#B6AFA5" d="M568.3,800c0-5.7,0.3-11.5,0.9-17.2c1-10.3,3.6-20.2,5.3-30.3c0.7-4.5,1.4-9.1,2.2-13.6
				c1-5.3,1.8-11.5,4-16.4c0.2-0.4-0.4-0.8-0.6-0.3c-1.9,3.7-3.8,6.9-5.1,10.9c-1.6,4.9-2.2,10.1-3.1,15.2
				c-1.6,9.7-4.3,19.2-5.6,29.1c-1,7.6-1.5,15.1-1.6,22.7H568.3z"/>
		</g>
		<g>
			<path fill="#B6AFA5" d="M749.3,530.1c0.6,4.5,0,9.2,0.7,13.8c0.8,5.8,2.2,11.4,3.8,17c2.9,10.3,5.8,20.6,9,30.7
				c3.1,9.8,6.5,19.5,8.8,29.6c1.9,8.6,1,19.5,6.1,26.9c0.5,0.7,1.4,0.2,1.3-0.5c-1.4-8.5-1.8-17.1-3.3-25.6
				c-1.8-10.1-5.3-19.9-8.5-29.6c-6.7-20.5-12.4-41.3-17.1-62.3C749.8,529.8,749.3,529.8,749.3,530.1L749.3,530.1z"/>
		</g>
		<g>
			<path fill="#B6AFA5" d="M763.7,592.5c-1.2,4.1-0.3,8.2,0.6,12.3c1.1,4.8,2.3,10.3,4.7,14.7c0.5,0.9,1.8,0.5,1.8-0.5
				c0.1-4-1.5-7.9-2.6-11.7c-1.4-4.9-2-10-3.6-14.8C764.4,592.1,763.8,592.1,763.7,592.5L763.7,592.5z"/>
		</g>
		<g>
			<path fill="#B6AFA5" d="M767.4,602.1c2.5,12.5,6.7,24.7,8.7,37.4c1.2,7.5,2.4,15.1,3.6,22.6c0.6,3.8,1.1,7.5,1.7,11.3
				c0.7,4.1,2.3,8.1,2.6,12.2c0,0.4,0.6,0.4,0.6,0c0.1-7.1,0-13.6-0.9-20.6c-1.1-8.2-2.4-16.3-3.7-24.5c-1.2-7.8-3.5-15.2-5.4-22.9
				c-1.4-5.4-1.9-12-6.4-15.9C767.7,601.4,767.3,601.7,767.4,602.1L767.4,602.1z"/>
		</g>
		<g>
			<path fill="#B6AFA5" d="M702.1,622.6c2.1,1.9,4.6,3.3,6.7,5.1c3.1,2.6,5.3,6.2,6.8,9.8c3,7.5,1.5,17.3,1.2,25.2
				c-0.3,9-0.8,17.9-0.8,26.9c0,5.5-1.5,12.1,2.5,16.6c0.2,0.3,0.7,0,0.7-0.3c0-17.6,1.2-35.2,1.4-52.8c0.1-7.5-0.1-14.1-3.8-20.7
				c-2.8-4.9-8.5-10.3-14.5-10.3C702,622.1,701.9,622.4,702.1,622.6L702.1,622.6z"/>
		</g>
		<g>
			<path fill="#B6AFA5" d="M531.9,0h-2.7c-0.3,1.9-0.5,3.8-0.8,5.7c-2.1,17.5-3.7,35.1-4.2,52.8c-0.8,32.6,5.2,64.7,7.1,97.2
				c2.2,37.2,0.6,74.9,0.4,112.1c-0.2,33.5-0.5,66.9-1.2,100.4c-0.5,22.6-0.8,45.2-2.5,67.7c-0.8,10.4-2.6,20.6-3.6,31
				c-2,20-2.3,40.1-2.3,60.1c0.1,20.1,0.7,40.1,0.8,60.1c0.1,19.9-1.3,39.8-1,59.7c0.3,19.4,2.6,38.7,4,58.1
				c1.5,20.1-0.4,39.1-3.7,58.9c-2,12.1-3.5,24-4.3,36h3c0.2-3.5,0.5-7.1,0.9-10.6c2-19,6.5-37.6,8-56.7c1.5-19.2-1.5-38.7-3-57.9
				c-1.6-19.7-1.5-39-0.8-58.7c0.6-20,0.2-40.1-0.2-60.1c-0.7-37.3-0.1-74,4.6-111c2.4-18.7,2.4-37.9,2.9-56.7
				c1.8-68.4,1.8-136.9,1.9-205.4c0-33.8-5.4-66.8-7.5-100.4C526.2,54.9,528.9,27.4,531.9,0z"/>
		</g>
		<g>
			<path fill="#B6AFA5" d="M593.3,313.9c-3.9-16.9-7.6-33.1-9-50.4c-1.3-16.6-1.5-33.2-2-49.8c-0.5-16.7-2.9-32.8-5.5-49.2
				c-3-18.6-2.1-36.1,2-54.5c3.5-16,8.1-31.6,9.7-48c2-20.7-0.6-41.4-4.5-62h-3.4c4.4,25.4,7.2,51,2.4,76.8
				c-3.3,17.5-8.8,34.4-11,52.1c-2.3,18.4,1.6,36.4,4.5,54.5c3,18.5,2.5,37.4,3.1,56c0.6,17.4,1.7,34.9,4.8,52.1
				c1.6,8.6,4.2,17,6.2,25.6c2.3,9.9,3.9,20,5.5,30.1c2.9,19.5,5.7,38.9,9.3,58.3c3.5,18.7,6.3,37.5,6.3,56.6
				c0.1,19.5-4,37.9-9.4,56.5c-10.9,37.1-23.4,73.6-33.4,111c-10.1,37.5-15.9,75.9-21.3,114.3c-2.6,18.5-5.2,37.3-6.8,56.1h3.9
				c2.8-33.8,8-67.4,13.4-100.9c6.1-38.4,15.8-75.7,27.2-112.9c5.7-18.5,11.6-36.9,17.2-55.4c5.4-17.7,10.6-35.2,12.2-53.6
				c3.4-37.1-7-73.5-12.2-109.9C599.8,349.4,597.4,331.5,593.3,313.9z"/>
		</g>
		<g>
			<path fill="#B6AFA5" d="M560.7,40.2c-2.2-13.3-4.3-26.7-5.9-40.2h-2.6c0.4,4.6,0.8,9.3,1.4,13.9c1.7,13.7,4,27.2,6,40.8
				c3,20,2,40.1,1.7,60.3c-0.5,26.1-1.2,52.1-1.6,78.2c-0.4,29.6,0.5,59.3,0.7,88.9c0.4,57.3-0.4,114.5-1.5,171.8
				c-0.4,22.1-0.2,44.3-1.3,66.4c-2,40.4-7.2,80.5-11.9,120.6c-2.3,19.7-4.7,39.4-6,59.2c-0.8,13.5,0,27.1-0.6,40.7
				c-0.7,15.6-3.5,30.8-6.1,46.2c-0.7,4.3-1.3,8.7-1.8,13.1h3.5c0.4-3.5,0.9-7,1.4-10.5c2.2-14,5-27.8,6.1-42c1.1-14,0.3-28,0.8-42
				c0.6-19.2,3.2-38.4,5.4-57.4c2.3-20.1,4.8-40.2,7-60.3c3.9-35.6,6.4-71.1,6.7-106.9c0.1-18.4,0.6-36.7,0.9-55.1
				c1.2-65.1,1.4-130.3,0.3-195.5c-0.8-48,1.6-96.1,1.8-144.1C565.2,70.7,563.2,55.6,560.7,40.2z"/>
		</g>
		<g>
			<path fill="#B6AFA5" d="M769.5,538.9c-2.9-14.9-7.3-29.6-17-41.6c-10.8-13.3-22.6-24.7-25.7-42.2c-3-16.9-1.4-34.5-1.1-51.6
				c0.3-17.6-1.5-35.1-2.2-52.6c-0.7-18.3,0.8-36.6,0-54.8c-0.7-16.4-6-32.2-10.6-47.8c-10.6-36.1-10.6-76.2-5.6-113.2
				c4.9-35.9,13.8-71.4,13-107.9C720.1,18,718.5,9,716.6,0h-3.5c1.8,9,3.4,18,3.7,27.2c0.7,19-1.8,38-4.8,56.6
				c-2.8,17.7-6.3,35.2-8.6,52.9c-2.4,18.5-3.1,36.7-2.4,55.4c0.7,17.8,2.5,35.6,7.1,52.9c4.5,17,10.6,33.3,11.7,51.1
				c0.5,8.6-0.4,17.3-0.5,25.9c-0.1,9.6,0.1,19.3,0.5,28.9c0.7,17.5,2.4,35,2.2,52.6c-0.2,16.2-1.5,32.7,0.7,48.8
				c2.2,15.5,9.4,26.7,19.5,38.5c5.6,6.5,11,12.8,15,20.4c4,7.7,6.2,16.3,8,24.7c1.8,8.2,3.3,16.2,6,24.2c2.7,8.1,6.1,15.9,9.5,23.6
				c7.4,16.9,14.4,33.4,18.1,51.6c3.8,18.7,5,37.9,5.1,57c0,18.5-1.6,37-1.9,55.5c-0.3,17.5-1,35-5.3,52.1h4
				c4.4-16.9,4.8-34.7,5.1-52.1c0.6-36.7,3.9-72.8-2.5-109.3C797,603.6,776.3,573.7,769.5,538.9z"/>
		</g>
		<g>
			<path fill="#B6AFA5" d="M781.8,520.3c-5.7-14.5-13.7-28-20.6-41.9c-8.1-16.4-12.5-33.1-15.6-51.1c-6.4-37.9-7.3-76.6-6.2-115
				c1.1-38.6-1.6-77.1-4.4-115.6c-1.4-19-2.7-37.9-4.3-56.9c-1.6-19.2-2.9-38.6-0.2-57.8c2.7-18.5,8.5-36.3,11.4-54.8
				c1.4-9.2,1-18.3-0.5-27.2h-2.5c1.3,8.6,1.5,17.4,0.3,26.5c-2.5,18.4-8.6,36.3-11.5,54.7c-2.9,17.9-1.9,36.1-0.5,54.1
				c1.4,18.9,2.8,37.8,4.2,56.7c2.7,38.5,5.5,77,4.7,115.6c-0.8,37.4-0.5,74.5,4.8,111.6c2.4,17.2,5.5,34.3,12.4,50.3
				c6.4,14.8,14.6,28.7,21.5,43.2c8,17,12.4,35.6,34.9,106l16.1,53.5h2.7c-3.3-10.7-26.5-87.3-29.7-98
				C793.2,556.3,788.7,537.7,781.8,520.3z"/>
		</g>
		<g>
			<path fill="#B6AFA5" d="M793.9,355.7c0.6-32.6,2.4-64.7,5.9-97.1c3.4-32.3,5.5-64.4,3.1-96.9c-1.1-14.9-3-29.8-5.2-44.6
				c-2.3-15.5-6.4-30.7-8.9-46.1c-2.8-17-1.8-32.7,3.2-49.2c2-6.4,4.1-12.8,4.6-19.6c0.1-0.7,0.1-1.4,0.1-2.1h-2.1
				c-0.5,8.7-3.7,16.7-6.4,24.9c-5.3,16.1-4.7,32.3-2,48.8c2.9,17.8,7.3,35.2,9.8,53.1c2.6,18.9,4.4,37.9,4.9,57
				c1,37.9-5,75.3-8.1,113c-1.6,18.8-1.7,37.7-2.1,56.6c-0.4,18.9-0.6,37.8,0,56.7c0.6,18.3,2.3,36.5,5.3,54.6
				c3.1,18.5,8,37,12.4,55.2c0.1,0.4,0.2,0.7,0.3,1.1v-14.9c-2.8-11.9-5.5-23.8-8-35.8C792.8,432.8,793.2,393.9,793.9,355.7z"/>
		</g>
	</g>
	<g>
		<path fill="#B6AFA5" d="M393.5,71.9C391.7,48,390.2,24,389.1,0h-2.9c1.7,48.1,5.7,96,9.5,144c5.1,65.1,7.9,130.2,7.4,195.6
			c-0.1,16.4-0.9,32.8-3.2,49c-2.2,15.4-0.6,31.4,0,46.9c1.2,32.6-6.3,64.8-12.6,96.7c-6.1,30.6-12.2,61.2-15.5,92.3
			c-3.4,32.2-3.4,65-3.6,97.4c-0.1,18.6-0.4,37.3-0.1,55.9c0.1,7.3,0.4,14.9,1.6,22.3h3.6c-0.7-4.9-1.1-9.8-1.4-14.6
			c-0.7-12.8-0.3-25.7-0.3-38.5c0-32.6,0.4-65.2,1.8-97.8c1.4-32.1,7-63.9,13.2-95.4c6-30.8,13.6-61.8,16.5-93.1
			c1.5-16.1-0.1-32.3-0.5-48.3c-0.4-16.1,2.3-31.8,3.3-47.9c2-32.2,1-64.9,0.3-97.2C404.8,202,398.3,137,393.5,71.9z"/>
	</g>
	<g>
		<path fill="#B6AFA5" d="M415.1,299.9c-0.8-16.5-0.9-33-0.5-49.5c0.3-15.9,1.7-31.6,0.1-47.5c-1.5-15.5-4.7-30.9-6.7-46.4
			c-4.2-32.3-1.8-64.6,2-96.8c2.4-19.9,5.4-39.8,6.5-59.8H413c-0.4,7.2-0.8,14.4-1.6,21.6c-3.7,32.2-9.1,64.3-9.3,96.8
			c-0.1,15.4,1.3,30.9,3.5,46.2c2.3,15.8,5.4,31.5,6.3,47.5c1,16-0.9,32.2-1,48.3c-0.2,16.4-0.2,33.1,1.3,49.4
			c2.8,31.4,6.8,62.6,7.9,94.1c1.1,31.5-2.6,62.9-5.2,94.2c-1.4,16.3-3.4,32.4-7.3,48.3c-3.7,15-6.7,30.3-9.3,45.5
			c-5.3,31-1.7,62.5-0.9,93.7c1,38.1,0.9,76.2,1.4,114.3h2.9c0.2-24.9,0.1-49.9-0.1-74.8c-0.3-32.8-2.1-65.5-2.8-98.2
			c-0.6-31.6,9.3-62.2,15.1-92.9c2.8-14.9,4.1-30,5.3-45.1c1.2-15.6,3-31.2,4-46.8c2-31.5-0.6-63.1-3.7-94.5
			C417.8,331.8,415.8,315.9,415.1,299.9z"/>
	</g>
	<g>
		<path fill="#B6AFA5" d="M469.2,0h-3.1c-1.5,8.4-2.9,16.7-4,25.2c-4.3,32.7-6.6,65.6-6.8,98.6c-0.2,33,0.7,66.1,0.1,99.1
			c-0.7,32.7-4,65.2-8,97.6c-4,32.4-8.7,64.8-12.5,97.3c-1.9,16.1-3.8,32.2-4.7,48.4c-0.9,16-0.9,32-1.9,48
			c-1.9,30-12.8,58.7-9.3,89.1c1.9,16.1,4.5,32,5.5,48.3c0.9,16,0.9,32,0.7,48c-0.4,23.4-1.9,46.8-2.6,70.2
			c-0.3,10.1-0.3,20.2,0.3,30.2h3.5c-1.1-18.3-0.2-36.8,0.8-55c1.6-31.7,2.6-63.6,0.7-95.3c-0.9-16.2-3.7-32.1-5.6-48.2
			c-1.7-15,0.2-30.1,2.9-44.9c2.7-14.8,5.7-29.3,6.7-44.3c1-16,0.9-32,1.9-48c1.9-32.5,6.7-64.9,11-97.1
			c4.3-32.4,8.7-64.8,11.6-97.4c5.8-65.8-0.6-131.8,4.3-197.6C462.5,48.2,464.7,23.8,469.2,0z"/>
	</g>
	<g>
		<path fill="#B6AFA5" d="M486.5,76.3c-1.1-25.4-1.5-50.9-0.3-76.3h-3c-3.1,54.5,2,109.2,5,163.7c0.8,15.6,1.5,30.6-1.7,46
			c-2.7,13.2-7,26-9.4,39.3c-2.6,14.5-2.4,29.5-3.5,44.2c-1.2,16.3-2.9,32.6-5.6,48.8c-2.5,15-2.5,30.8-2.8,46
			c-0.3,16-0.1,32.1,0,48.1c0.1,15.9,0,31.8-0.8,47.8c-0.8,16.1-2.8,32-2.7,48.1c0.1,16.2,1.5,32.3,3.4,48.4
			c1.8,15.1-0.2,30.5-1.7,45.5c-3.1,32.3-0.8,64.8,2.5,97c2.6,25.8,6.4,51.5,10.2,77.2h2.6c-2.7-21.8-5.6-43.6-8.1-65.4
			c-3.7-32.2-7-65.2-4.7-97.5c1.1-15.3,3.4-30.5,3.3-45.9c-0.1-15.9-3-31.8-3.7-47.7c-0.7-16.3,0.3-32.2,1.7-48.4
			c1.3-15.8,1.5-31.7,1.5-47.5c0-31.9-1.1-63.9,1.7-95.7c1.4-15.8,4.3-31.5,5.7-47.4c1.4-15.6,1.7-31.2,3.2-46.8
			c1.3-13.9,5.7-27.3,9.1-40.8c3.4-13.8,4.5-27.2,3.9-41.3C490.7,142.5,488,109.4,486.5,76.3z"/>
	</g>
	<g>
		<path fill="#B6AFA5" d="M497.1,50.7c0.3-16,1.7-32.1,3-48c0.1-0.9,0.1-1.8,0.2-2.7h-4c-1.4,17.6-2.5,35.1-2.8,52.7
			c-0.6,32.3,4.4,64.4,6.3,96.5c0.9,15.7,1.2,31.4-0.7,47.1c-1.7,13.8-4.8,27.4-7.5,41c-5.7,28.1-4.9,57.2-5.3,85.8
			c-0.2,15.8,0.2,31.5,0.3,47.2c0,0.4,0.6,0.4,0.6,0c0.7-16.4,1.7-32.8,2.3-49.2c0.5-16.4,1-32.8,1.6-49.2
			c0.9-26.3,8.7-51.4,11.9-77.4c3.8-31.6-0.9-64-3.6-95.5C497.8,82.9,496.7,66.9,497.1,50.7z"/>
	</g>
	<g>
		<path fill="#B6AFA5" d="M462.5,533.3c-0.2,23.4-0.3,46.7-1,70c-0.7,21.7-1.9,43.7,1.9,65.2c0.1,0.7,1.3,0.7,1.4,0
			c1.5-9.8-1.4-20.3-1.4-30.2c0-11.7,0.4-23.3,0.8-35c0.8-23.2,2.2-47.1-1.3-70.1C462.8,533.1,462.5,533.2,462.5,533.3L462.5,533.3z
			"/>
	</g>
	<g>
		<path fill="#B6AFA5" d="M462.8,574.6c-1.6,10.6-1.1,21.9-1.2,32.6c-0.1,5.8-0.2,11.5-0.3,17.3c-0.1,5.6-0.9,11.9,0.5,17.4
			c0.2,0.8,1.5,0.8,1.7,0c1.2-4.9,0.7-10.4,0.7-15.4c0-5.7,0.1-11.5,0.2-17.2c0.2-11.3,1.2-23.3-0.6-34.5
			C463.7,574.1,462.9,574.1,462.8,574.6L462.8,574.6z"/>
	</g>
	<g>
		<path fill="#B6AFA5" d="M462.9,575.3c-2.1,7.1-1.1,15.2-0.9,22.5c0.2,7.3-0.6,15.5,1.1,22.7c0.2,0.9,1.7,1,1.9,0
			c1.6-7.1,0.2-15.4-0.1-22.7c-0.3-7.4,0.4-15.3-1.1-22.5C463.7,574.9,463,574.9,462.9,575.3L462.9,575.3z"/>
	</g>
	<g>
		<path fill="#B6AFA5" d="M461.8,575c1.8,6.2,2.4,11.9,2,18.3c-0.3,5.3-1.8,11.4-0.2,16.5c0.3,0.9,1.7,1,1.9,0
			c1.3-5.7,1-12.3,1.3-18.1c0.3-5.8,0-12.5-3.5-17.3C462.8,573.6,461.5,574,461.8,575L461.8,575z"/>
	</g>
	<g>
		<path fill="#B6AFA5" d="M463.3,578.1c0.6,11.5-0.6,23.3,0.6,34.8c0.1,0.9,1.3,0.9,1.4,0c1.3-11.4,1.2-23.6-0.7-34.9
			C464.5,577.2,463.3,577.4,463.3,578.1L463.3,578.1z"/>
	</g>
	<g>
		<path fill="#B6AFA5" d="M532.9,290.7c1.4-12.3,0.5-24.8,0.2-37.1c-0.3-12.9-0.8-25.8-0.9-38.7c-0.2-12.9,0-25.8,0.7-38.6
			c0.6-10.3,3.7-22.4-0.6-32.3c-0.2-0.6-1.2-0.3-1.1,0.3c0.1,5.2,0.8,10.3,0.6,15.6c-0.2,6.1-1.4,12.2-1.7,18.3
			c-0.7,12.2-0.8,24.5-0.7,36.7c0.1,12.2,0.5,24.5,0.9,36.7c0.4,13,0.2,26.2,1.7,39.1C532.2,291.2,532.8,291.2,532.9,290.7
			L532.9,290.7z"/>
	</g>
	<g>
		<path fill="#B6AFA5" d="M531.5,225.3c2.3-7.7,3.1-15.3,3-23.3c0-4.6-0.3-9.1-0.5-13.7c-0.2-3.8,0.1-7.8-0.9-11.4
			c-0.2-0.7-1.2-0.7-1.4,0c-1.7,6.7,0,14.8,0.3,21.7c0.3,8.8,0.6,18-1.3,26.6C530.7,225.6,531.4,225.8,531.5,225.3L531.5,225.3z"/>
	</g>
	<g>
		<path fill="#B6AFA5" d="M532.5,194.3c-1.2,5.5-1.6,10.9-1.6,16.6c0,5.4-0.3,11.3,0.8,16.6c0.2,0.8,1.5,0.8,1.6,0
			c1-4.8,0.2-9.9,0.1-14.8c-0.2-6.1-0.2-12.2,0.5-18.2C534,193.7,532.6,193.5,532.5,194.3L532.5,194.3z"/>
	</g>
	<g>
		<path fill="#B6AFA5" d="M530.4,203.2c0,8.7-0.2,17.6,1.6,26.2c0.1,0.5,1,0.4,1-0.1c-0.6-8.7-1.1-17.3-1.1-26.1
			C531.9,202.2,530.4,202.2,530.4,203.2L530.4,203.2z"/>
	</g>
	<g>
		<path fill="#B6AFA5" d="M611.5,68.2c-0.9,18.2-1.5,35.5,1.8,53.5c1.7,9.1,3.9,18.1,5.4,27.3c1.5,8.4,1.2,16.7,4.7,24.7
			c0.5,1.2,2.4,0.3,2.1-0.9c-2-8.2-2.6-16.3-4-24.6c-1.4-8.5-3.5-16.9-5.3-25.4c-3.8-18.2-3.5-36.2-4.3-54.6
			C612,67.8,611.5,67.8,611.5,68.2L611.5,68.2z"/>
	</g>
	<g>
		<path fill="#B6AFA5" d="M702.8,157.1c-0.9,10.1-0.6,20.1,0.5,30.2c1.1,10.2,3.5,20.1,4.4,30.3c0.9,10.1,1.2,20.3,2.4,30.4
			c1.2,9.6,2.7,19.5,8.1,27.7c0.3,0.4,1,0.2,0.8-0.4c-2.3-9.8-5-19.2-6.3-29.2c-1.3-10.1-1.5-20.3-2.4-30.4
			c-0.8-9.6-3.2-18.9-4.4-28.4c-1.3-10-1.5-20.2-2.5-30.2C703.4,156.6,702.8,156.6,702.8,157.1L702.8,157.1z"/>
	</g>
	<g>
		<path fill="#B6AFA5" d="M702.7,194.5c-0.7,7.4-0.1,14.5,1,21.8c1.1,7.5,1.7,16,4,23.2c0.3,0.9,1.4,0.6,1.5-0.2
			c0.7-6.5-1.4-13.6-2.6-20c-1.4-8.2-2.9-16.5-3.2-24.8C703.5,194,702.8,194,702.7,194.5L702.7,194.5z"/>
	</g>
	<g>
		<path fill="#B6AFA5" d="M703.4,195.8c-0.7,5.5,0.4,11.1,1.2,16.6c0.9,6.1,1,12.4,2.3,18.4c0.2,0.9,1.7,0.9,1.8,0
			c0.9-5.1-0.2-10.4-0.9-15.5c-1-6.5-1.9-13.3-3.7-19.6C704,195.3,703.5,195.4,703.4,195.8L703.4,195.8z"/>
	</g>
	<g>
		<path fill="#B6AFA5" d="M704.2,196.5c-0.6,9.7-0.9,22.3,3.7,31.1c0.3,0.7,1.5,0.4,1.4-0.4c-0.3-4.4-1.6-8.8-2.3-13.2
			c-1-5.8-1.7-11.8-2.2-17.6C704.8,196.1,704.2,196.1,704.2,196.5L704.2,196.5z"/>
	</g>
	<g>
		<path fill="#B6AFA5" d="M413.9,8c0.2,4.9-0.4,10-0.4,15c-0.1,5.6-0.4,11.3-0.8,16.9c-0.8,10.7-2.3,21.4-3.6,32
			c-2.7,21.6-4.3,42.9-3,64.7c1.3,22.2,4.5,44.3,6.4,66.5c0.9,10.8,1.3,21.6,0.5,32.4c-0.8,10.7-2.1,21.1-1.6,31.8
			c0.1,1.2,1.8,1.2,1.9,0c0.7-10.6,2-21.2,2.9-31.8c0.9-10.9,0.3-21.6-0.5-32.4c-1.7-22.2-5.1-44.2-6.5-66.5
			c-1.4-21.8,0.3-43.1,2.8-64.7c1.2-10.7,2.5-21.3,3.3-32c0.4-5,0.6-10,0.7-15c0.1-5.8-0.8-11.1-1.3-16.8
			C414.6,7.6,413.9,7.6,413.9,8L413.9,8z"/>
	</g>
	<g>
		<path fill="#B6AFA5" d="M413.3,32.6c-5.3,7.3-2.9,19-4.4,27.5c-1.1,6.2-2.3,12.3-3.3,18.5c-0.9,5.6-2,11.6-0.6,17.1
			c0.1,0.6,1,0.6,1.1,0c1.4-5.3,1.5-11,2.3-16.4c0.9-6.2,2.2-12.4,3.3-18.5c1.6-9.3,1.1-18.8,2.3-28.1
			C414,32.3,413.5,32.3,413.3,32.6L413.3,32.6z"/>
	</g>
	<g>
		<path fill="#B6AFA5" d="M407.9,62.7c-1.9,8.6-3.5,17.4-2.8,26.2c0,0.6,0.9,0.6,1,0c0.8-8.7,0.7-17.4,2.6-26
			C408.7,62.4,408,62.2,407.9,62.7L407.9,62.7z"/>
	</g>
	<g>
		<path fill="#B6AFA5" d="M591.3,318.9c0.9,5.8,1.3,11.8,2.2,17.6c1,6.4,2,12.8,2.9,19.3c2,13.3,3.6,26.7,5.1,40.1
			c1.4,12.9,2.2,25.7,3.3,38.6c1,12.5,2.6,24.9,3.4,37.4c0.7,12,0.1,23.6-2.5,35.4c-2.6,12.1-6.6,23.8-10.4,35.5
			c-3.3,10.3-6.4,20.3-10.4,30.3c-3.8,9.3-7.3,18.3-6.6,28.4c0,0.7,1,0.7,1,0c0.3-10.6,5.4-21.1,9.4-30.6
			c4.2-10.1,7.1-20.5,10.4-30.9c3.8-11.7,7.5-23.5,10-35.5c2.4-11.4,2.5-22.9,1.8-34.5c-0.7-12.5-2.4-24.9-3.5-37.4
			c-1.1-12.9-2.1-25.8-3.5-38.7c-1.3-12.4-3-24.7-4.8-37c-1-6.4-2-12.8-3.1-19.2c-1.2-6.4-3-12.7-4.3-19
			C591.8,318.4,591.3,318.5,591.3,318.9L591.3,318.9z"/>
	</g>
	<g>
		<path fill="#B6AFA5" d="M605.2,400.8c-1.2,5.5-0.4,11.3,0,16.9c0.5,6.3,1.3,12.5,2.1,18.8c0.8,6.3,1.5,12.6,2.1,18.9
			c0.5,5.6,0.1,11.8,1.9,17.2c0.1,0.4,0.7,0.4,0.8,0c1.8-5.4,0.7-11.6,0.2-17.2c-0.5-6.3-1.4-12.6-2.2-18.9
			c-0.8-6.3-1.6-12.5-2.2-18.8c-0.6-5.6-0.4-11.4-1.7-16.9C606.2,400.3,605.3,400.3,605.2,400.8L605.2,400.8z"/>
	</g>
	<g>
		<path fill="#B6AFA5" d="M605.5,412.4c-0.6,11.7,0.2,24.3,3.5,35.6c0.2,0.8,1.6,0.7,1.5-0.2c-0.8-11.9-3.8-23.5-4.6-35.4
			C605.9,412.1,605.5,412.1,605.5,412.4L605.5,412.4z"/>
	</g>
</g>
<path fill="#B6AFA5" d="M825.6,672.3"/>
<path fill="#B6AFA5" d="M825.6,672.4c0,0,6.7,109.6-8,127.6h8c0,0,7.4-91.5,2.7-127.5"/>
<line fill="#CDB59C" x1="1279.5" y1="-0.2" x2="443.6" y2="-0.2"/>
<g>
	<g>
		<path fill="#E5C8A9" d="M1254.3-0.2h2.4"/>
	</g>
	<g>
		<path fill="#E5C8A9" d="M1254.5-0.2h3.5"/>
	</g>
	<g>
		<path fill="#E5C8A9" d="M1061.4-0.2h3.8"/>
	</g>
	<g>
		<path fill="#E5C8A9" d="M1089-0.2h3.4"/>
	</g>
	<g>
		<path fill="#E5C8A9" d="M1092-0.2h3.9"/>
	</g>
	<g>
		<path fill="#E5C8A9" d="M1232.7-0.2h3"/>
	</g>
	<g>
		<path fill="#E5C8A9" d="M1158.2-0.2h3.5"/>
	</g>
	<g>
		<path fill="#E5C8A9" d="M1200.2-0.2h3.3c0,0.4,0,0.8,0,1.2"/>
	</g>
	<g>
		<path fill="#E5C8A9" d="M1028.7-0.2h3.7"/>
	</g>
	<g>
		<path fill="#E5C8A9" d="M1014-0.2h2.8"/>
	</g>
	<g>
		<path fill="#E5C8A9" d="M984.2-0.2h3.2"/>
	</g>
	<g>
		<path fill="#E5C8A9" d="M956.6-0.2h2.9"/>
	</g>
	<g>
		<path fill="#E5C8A9" d="M918.5-0.2h2.8"/>
	</g>
</g>
<g>
	<path fill="#E5C8A9" d="M885.1-0.2h3"/>
</g>
<g>
	<path fill="#E5C8A9" d="M856.5-0.2h3.7"/>
</g>
<g>
	<g>
		<path fill="#B6AFA5" d="M1259.7,456.9c0.4-65.7,4.7-131.3,4.8-197c0-66.3,0.1-132.5,0.2-198.8c0-20,0.1-40,0.3-60h2.3
			c0.8,56.3,0.3,112.7,0.4,169c0,66,0.3,131.8-2.1,197.8c-1.2,33-2.5,66-2.5,99c0,32.4,2.8,64.7,5.4,97c2.6,32.1,4.4,64.1,4,96.3
			c-0.4,31.9-2.5,63.7-3.4,95.5c-0.4,15.2,0,30.4-1.6,45.4h-2.9c1.5-17.6,0.5-35.7,1.4-53.1c1.7-32.6,3-65.2,3.2-97.8
			C1269.5,585.7,1259.3,521.5,1259.7,456.9z"/>
	</g>
	<g>
		<path fill="#B6AFA5" d="M1247.1,630.8c-7.4-65.3-7.4-131.2-4.8-196.7c2.7-65.6,8.1-131.1,12-196.7c2-32.9,1.9-65.3-0.9-98.1
			c-2.8-32.5-7.5-64.9-8.7-97.6c-0.5-13.6-0.7-27.1-0.6-40.7h2.4c0,16.9,0.1,33.7,0.9,50.6c1.5,32.6,6.4,64.9,9.1,97.4
			c5.5,65.4-2.2,131.1-6.5,196.4c-4.3,65.6-7.6,131.2-5.8,196.9c0.9,32.8,3.1,65.6,7.1,98.2c2,16.4,4.3,32.6,4.7,49.2
			c0.5,16.4-0.4,32.9-1.8,49.3c-1.8,20.8-5,41.4-7.9,62h-1.7c0.7-7.5,1.5-15.1,2.4-22.6c1.9-16.4,3.8-32.8,4.9-49.3
			c1.1-16.4,1.5-32.8,0.6-49.3C1251.7,663.5,1249,647.2,1247.1,630.8z"/>
	</g>
	<g>
		<path fill="#B6AFA5" d="M1091,420.6c-0.3-5.1-2-10.7-3.4-15.6c-1.9-6.4-4.5-13.3-8.8-18.6c-4.8-5.8-9.4-0.7-11.5,4.4
			c-2.7,6.5-3.1,13.8-3.2,20.7c-0.1,5.9,0.3,12,2.1,17.6c3.1,10.1,14.8,11,21.1,3.1c3.3-4.2,2.3-10.9,2.2-15.9
			c-0.1-2.8-0.6-6.1-1.2-8.9c-0.5-2.5,0.3-1.7,0.6-0.6c1,4.6,2.1,9.2,3.1,13.8c0.1,0.6-0.8,0.8-0.9,0.2c-1-4.9-2.7-10.2-3-15.2
			c0-0.3,0.4-0.3,0.5-0.1c3,9.2,7.5,20.4,0.5,29c-4.4,5.4-11.9,7.4-18.4,4.5c-5.9-2.7-7.8-9.6-8.6-15.2c-1.1-7.9-1-16,0.2-23.9
			c1.1-7.3,7.2-26.4,17.9-16c4.9,4.8,7.3,12.1,9.3,18.3c1.8,5.8,3.9,12.4,2.4,18.5C1091.8,421.3,1091,421.1,1091,420.6z"/>
	</g>
	<g>
		<path fill="#B6AFA5" d="M1073.9,458.5c-20.8-8.6-22.7-30.6-20.4-49.7c1.6-13.2,3.2-25.9,2-39.3c-0.8-8.9-1.1-20.2,8.7-24.7
			c13.9-6.4,22.9,18.8,26.1,27.1c5,12.8,9.2,25.4,11,38.9c1.9,13.8,2.5,27.6-5,40.1c-2.2,3.7-6.1,6-9.9,8.1c-3.4,1.8-2.8,0-1.9,2.2
			C1085.3,463.5,1074.2,458.7,1073.9,458.5c-0.4-0.2-0.1-0.7,0.3-0.6c2.9,1.3,6.2,3.2,9.5,3.5c-0.1,0-0.8-0.8-0.9-0.9
			c-0.2-0.1-0.1-0.4,0.1-0.5c2.7-1.3,7.5-2.9,8.1-6.2c0.3-1.6,2.7-4.1,3.6-5.6c3.7-6.3,4.8-13.9,4.9-20.9c0.2-13.7-3-27.8-7.1-40.8
			c-2.5-7.7-5.6-15.4-9.1-22.8c-2.7-5.8-6.8-14.7-14-16.4c-4.9-1.2-8.8,4.3-10.1,8c-1.7,4.9-0.9,10.6-0.5,15.7
			c1,11.7,0,23.2-1.9,34.8c-3.1,18.9-2.1,41.7,17.5,52.4C1074.6,458.2,1074.3,458.7,1073.9,458.5z"/>
	</g>
	<g>
		<path fill="#B6AFA5" d="M1071.9,472.1c-10.8-3.3-19.2-9.2-25.8-18.1c-7.3-9.9-8.7-21.5-8.4-33.3c0.5-15.9,4-31.5,3.9-47.4
			c0-11.3-2.5-22.6-3.5-33.8c-1.3-14.3,0.4-45.7,23.5-41.7c8.8,1.5,16.3,9.4,21.4,15.8c7.1,8.8,12,18.7,16.1,29.1
			c6.8,17.2,10,35.5,14,53.4c3,13.7,5.7,27.5,5,41.6c-0.7,13-5.5,26.1-16.8,34.1c-4.9,3.5-12.3,4.9-18.3,4.1
			C1079.3,475.4,1075.3,473.3,1071.9,472.1c-0.4-0.2-0.3-0.8,0.2-0.7c3.6,1.1,7.2,2.3,10.9,3.2c0.7,0.2,4.8-0.8,5.8-1.4
			c0.8-0.5,2.4-0.6,3.3-0.8c2.3-0.6,4.3-1.6,6.2-2.8c11.5-7,15.4-21.3,16.2-33.5c0.7-11.9-1.5-23.9-3.9-35.6
			c-2.8-13.9-5.5-27.9-9.4-41.6c-3.7-13-8.5-26-16.1-37.4c-5.4-8.2-13.1-17.6-23.2-20.6c-13.5-4-19.5,12.5-20.6,22.1
			c-1.3,11.3,0.8,22.8,2.3,33.9c1.3,9.9,1.6,19.6,0.8,29.6c-1,12.7-3.3,25.2-3.5,37.9c-0.3,21.2,11.5,37.8,31.4,47
			C1072.5,471.6,1072.3,472.2,1071.9,472.1z"/>
	</g>
	<g>
		<path fill="#B6AFA5" d="M1099.1,441.2c0.9,8.8-6.6,19.1-16.3,20.2c-8.8,1-20.9-6.7-22.8-15.1c-0.1-0.3,0.3-0.5,0.5-0.3
			c5.7,5.2,11,11.7,19.4,12.8c10.2,1.3,17-9.7,18.5-17.7C1098.6,440.8,1099.1,440.9,1099.1,441.2L1099.1,441.2z"/>
	</g>
	<g>
		<path fill="#B6AFA5" d="M1108,463.4c-5.5,10.1-16.3,14.3-27.9,12.8c-5.9-0.8-11.5-3.3-16.5-6.2c-5.8-3.4-9.5-7.6-12.8-13.1
			c-0.1-0.1,0.1-0.3,0.2-0.1c6.2,7.5,18,13.3,27.5,15.7c11.6,2.9,21.2-1.1,29-9.4C1107.8,462.8,1108.2,463.1,1108,463.4L1108,463.4z
			"/>
	</g>
	<g>
		<path fill="#B6AFA5" d="M1097.6,446.7c0.1,3.7-0.4,5.6-3.5,8.2c-3,2.6-7.3,4.1-11.2,4.9c-4.5,1-8.4,0.7-12.4-1.5
			c-5-2.7-6.5-7.4-9.7-11.5c-0.1-0.1,0.1-0.2,0.2-0.1c5.9,5.4,12.1,11.9,21,10c4.7-1,14.6-4.2,14.8-10
			C1096.9,446.3,1097.6,446.3,1097.6,446.7L1097.6,446.7z"/>
	</g>
	<g>
		<path fill="#B6AFA5" d="M1098.7,444.2c0,9.2-11.6,12.4-19.4,12.6c-4.7,0.1-9.5-1.8-13-4.6c-2.3-1.8-4.3-3.8-6.2-6.1
			c-1.9-2.3-2.2-4.1-3.5-6.8c-0.1-0.2,0.2-0.3,0.3-0.2c4.3,6.6,12.5,13.6,20.9,14.5c4,0.5,8.2-0.4,11.9-2c3.8-1.6,5.8-4.9,8.4-7.7
			C1098.2,443.7,1098.7,443.9,1098.7,444.2L1098.7,444.2z"/>
	</g>
	<g>
		<path fill="#B6AFA5" d="M1088.3,458c-5.4,0.3-13.8,1.9-16.2-4.1c-0.2-0.4,0.3-0.6,0.7-0.5c2.9,1.5,6,2,9.2,2.2
			c2.4,0.1,4.8,0.1,6.5,2C1088.6,457.7,1088.5,458,1088.3,458L1088.3,458z"/>
	</g>
	<g>
		<path fill="#B6AFA5" d="M1074.2,454.9c2.2,0.7,4.6,1,6.9,1.5c3,0.6,6-0.7,8.6-2c0.4-0.2,0.9,0.2,0.6,0.6c-2,2.5-4,4-7.4,4.2
			c-3.5,0.2-6.2-2.1-9-3.6C1073.5,455.4,1073.8,454.7,1074.2,454.9L1074.2,454.9z"/>
	</g>
	<g>
		<path fill="#B6AFA5" d="M1098.6,445.3c-1.6,5.1-2.8,8.7-7.5,12c-3.2,2.2-10.7,5.1-14.2,2.6c-0.5-0.4-0.5-1,0-1.3
			c1.7-1.2,3.7-1,5.7-1.3c2.2-0.3,4.3-1,6.2-2c3.9-1.9,7.7-6.4,9.2-10.2C1098.1,444.8,1098.7,444.9,1098.6,445.3L1098.6,445.3z"/>
	</g>
	<g>
		<path fill="#B6AFA5" d="M1095.9,392c5.3,18,14.4,49-6.9,61.1c-9,5.1-20,2.3-27.1-4.3c-3.9-3.7-6.2-8.9-7.5-13.9
			c-2-7.1-0.3-13.3,0.1-20.4c0-0.1,0.1-0.1,0.1,0c0.3,5.4,1.1,11.5,2,16.9c0.8,4.4,2.6,8.5,5.2,12.2c6.2,9,18.5,11.2,27.7,5.3
			c9-5.8,9.6-18.4,9.4-27.6c-0.2-9.7-1.6-19.9-3.7-29.3C1095.3,391.8,1095.8,391.6,1095.9,392L1095.9,392z"/>
	</g>
	<g>
		<path fill="#B6AFA5" d="M1110.1,394.5c1.8,4.4,3.8,8.3,5,12.9c1.3,4.6,2.1,9.3,2.7,14.1c1.2,9.7,0.2,19.8-3.3,29
			c-5.5,14.7-18.7,27-35.9,24.7c-15-2-27.2-14.6-34.2-26.5c-10.3-17.4-7.6-37.7-2.4-56.2c0.1-0.5,0.9-0.4,0.9,0.1
			c-0.1,17.6-5.2,34.3,3.1,51c5.9,11.9,16.8,23.3,30.4,27.2c17.4,4.9,30.6-9.8,35.7-24c5.9-16.4,2.4-35.9-2.5-52.1
			C1109.6,394.4,1110,394.3,1110.1,394.5L1110.1,394.5z"/>
	</g>
	<g>
		<path fill="#B6AFA5" d="M1121.3,383.4c1.8,15.9,5.9,31.5,8,47.3c1.6,11.5,0.7,22.4-3.1,33.5c-6.1,17.9-21.2,38.7-42.4,41.1
			c-18.9,2.1-31.9-18.3-39.6-31.6c-11.3-19.4-22.3-39.2-24.9-61.6c-1.5-12.6-0.2-25.4,1.7-37.9c2.4-15.9,4.4-31.3,4.4-47.4
			c0-12.7-2.4-25.7,1.3-38.1c2.5-8.4,9.3-16.9,18.4-19.3c16.7-4.4,31.7,14.9,39.5,26.1c5.7,8.2,9.8,17,13.9,26
			c6.5,14.3,12.7,28.6,17.7,43.4c8.3,24.4,12.3,51,13.4,76.6c0.1,1.9-3,1.9-3.1,0c-1.5-31.3-8-62.6-19.6-92
			c-8.6-21.8-17.4-45-33.5-62.9c-5.8-6.5-13.7-13.8-23.2-14.4c-13.1-0.8-20.1,14.2-21.5,24.2c-0.8,5.9-0.4,12-0.1,17.9
			c0.5,8,0.5,15.9,0.3,23.9c-0.5,15.1-3.5,29.6-5.3,44.5c-1.5,12.6-1.6,25.3,0.8,37.8c2.5,12.6,8.2,23.8,14.3,35.1
			c8.4,15.5,16.8,35.7,34,44c10.1,4.8,21,0.1,29.1-6.1c9.6-7.4,16.3-18.2,20.7-29.1c10.5-26.2-0.2-54.3-1.8-81.2
			C1120.6,383,1121.2,383,1121.3,383.4L1121.3,383.4z"/>
	</g>
	<g>
		<path fill="#B6AFA5" d="M1127.6,432.8c0.4,3.7,1.4,6.9,1.1,10.7c-0.2,3.4-0.8,6.8-1.6,10.2c-1.7,7.8-4.9,15.3-8.9,22.2
			c-6.7,11.6-18.3,24.2-32.8,26.2c-12.6,1.7-22.9-7.3-30-16c-9.8-11.9-16.5-25.9-23.7-39.2c0-0.1,0.1-0.1,0.1-0.1
			c4.2,6,8.7,11.7,12.6,17.9c3.1,4.9,6.4,9.7,9.8,14.4c6.6,9.1,15.9,19.5,28.5,19.7c14.3,0.2,26-14.1,32.4-24.6
			c3.8-6.2,6.5-13,8.5-19.9c1-3.5,1.7-7.1,2.1-10.8c0.4-3.4,1.5-7.3,1.2-10.7C1126.9,432.4,1127.5,432.5,1127.6,432.8L1127.6,432.8z
			"/>
	</g>
	<g>
		<path fill="#B6AFA5" d="M1119.4,351.8c2.1,7.4,4.7,14.6,6.6,22.2c2.1,8.2,3.8,16.4,5.8,24.6c3.5,14.9,7.8,29.6,9.2,44.8
			c2.3,25.1-7.3,48.4-23.3,68c-13,15.9-32.8,29.1-54.9,23.9c-21.1-5-34.7-23.2-43.3-41c-9.8-20.2-16.2-43.2-19.9-65.1
			c-5.2-30.7-0.8-61.3-0.7-92.2c0.1-15.9-0.6-31.8-1.3-47.7c-0.5-9.7-0.7-19.3,0.3-29c1.7-15.9,6.1-34.7,20.7-44.5
			c13.3-8.9,30.6-4.1,42,5.2c13.9,11.4,22,28.7,28.7,44.6c8.5,20.2,15,41.2,22.5,61.7c5,13.6,10,27.2,13.2,41.3
			c2.9,13,4.7,26.4,9.5,39c0.7,1.9-2.3,2.6-3.1,0.8c-5.6-13.7-7.5-28.2-10.8-42.4c-3.6-15.3-9.6-30.2-15-45
			c-7.9-21.7-14.5-44.1-24.5-65.1c-7.9-16.6-19.9-37-40.3-40.9c-22.5-4.4-33.6,16.4-37.6,33.8c-5.1,22.6-1.7,46.2-1.1,69
			c0.4,16,0.3,32.1-0.7,48.1c-1,15.5-1.6,30.9-0.4,46.4c1.9,24.3,8.7,49.3,17.9,72c8.2,20.4,21.5,41.3,44.9,47.6
			c33.1,9,59.3-28.4,69.1-53.2c8-20.4,4.7-42-0.3-62.6c-2.6-10.7-5-21.4-7.4-32.1c-2.3-10.6-4.1-21.6-6.9-32.1
			C1118,351.4,1119.2,351,1119.4,351.8L1119.4,351.8z"/>
	</g>
	<g>
		<path fill="#B6AFA5" d="M1163.6,442.6c3.8,35.9-11.9,73.9-35.4,101.6c-11,12.9-25.3,24.3-42.5,28.5c-17.3,4.3-35-1.2-48.8-11.4
			c-18.9-14-32.5-34.5-43.2-54.6c-11.7-22-19.8-45.7-25.9-69.7c-6-23.6-9.7-47.8-11.7-72c-1-12.4-1.7-24.8-0.7-37.2
			c1.2-13.9,4.6-27.6,8.8-40.9c4.2-13.8,9.3-27.3,13.4-41.1c3.1-10.3,5.2-20.7,7.1-31.2c3.9-21.3,7.2-43.7,18.5-62.7
			c8.9-14.9,26.9-28.6,45.6-22.1c17.3,6,27.8,24.8,34.6,39.9c10.7,23.6,14.3,49.9,19.6,74.9c3.1,14.7,6.6,29.4,11.7,43.6
			c5.2,14.7,12.7,28.5,19.1,42.8c12.3,27.4,22.8,55.7,27.9,85.1c4.5,26.1,5.7,57-6.4,81.5c-0.8,1.6-3.2,0.2-2.4-1.4
			c6.3-13.4,7.6-29.6,8-44.1c0.4-15.4-1.5-30.8-4.7-45.8c-6.4-30.1-18.4-58.9-31.5-86.8c-6.3-13.4-12.4-26.7-16.8-40.8
			c-4.4-14.4-7.4-29.2-10.4-43.9c-5-24.3-9.3-49.4-21-71.7c-8.1-15.4-23-35.9-44-30.9c-23.2,5.5-32.7,31.7-37.8,51.1
			c-5.6,21.5-7.8,43.6-14.2,65c-8.5,28.1-20.2,55.3-21.9,84.8c-1.4,24.2,2.2,49.5,6.4,73.3c4.3,24.9,10.9,49.5,20.3,73.1
			c9.1,23,21.4,45.2,38.1,64.1c13.3,15.1,31.5,28,53.2,26.8c28.6-1.6,50-26.8,63.1-48.5c7.7-12.7,13.5-26.5,17.4-40.7
			c3.5-12.4,6-25.9,4.9-38.7C1161.8,441.5,1163.5,441.5,1163.6,442.6L1163.6,442.6z"/>
	</g>
	<g>
		<path fill="#B6AFA5" d="M1265.4,380.1c-1.4,9.4-1.6,19.1-2.7,28.6c-1.1,9.7-2,19.4-2.8,29.1c-1.5,19-1.9,37.7,0.4,56.6
			c2.3,18.5,6.1,36.7,7.8,55.2c1.6,17.4-1.5,35.6,1.8,52.8c0.1,0.7-0.9,0.9-1.1,0.3c-5.4-15.8-2.6-32.9-4-49.3
			c-1.5-19.2-5.4-38.1-7.9-57.1c-2.6-19.6-2-38.8-0.4-58.5c0.8-9.7,1.9-19.4,3.1-29.1c1.2-9.7,3.7-19.1,5.3-28.7
			C1265,379.7,1265.5,379.8,1265.4,380.1L1265.4,380.1z"/>
	</g>
	<g>
		<path fill="#B6AFA5" d="M1261.3,436.1c2.2,9.4,1.2,19.6,1.3,29.2c0,5.2,0,10.4,0,15.6c0,4.6,0.4,9.2-1,13.6
			c-0.2,0.6-1.1,0.6-1.2,0c-1.4-4.4-1-9-1-13.6c0-5.2,0-10.4,0-15.6c0-9.6-0.9-19.7,1.3-29.2
			C1260.7,435.7,1261.2,435.7,1261.3,436.1L1261.3,436.1z"/>
	</g>
	<g>
		<path fill="#B6AFA5" d="M1263.3,437.3c-1.4,4.8-1.6,9.7-1.5,14.7c0.1,4,1.8,10.1-0.2,13.7c-0.3,0.5-1.1,0.5-1.3,0
			c-2.3-3.9-1.2-10.8-1.2-15.2c0-4.5,0.2-10.1,3.8-13.5C1263.1,436.8,1263.4,437,1263.3,437.3L1263.3,437.3z"/>
	</g>
	<g>
		<path fill="#B6AFA5" d="M1261.4,446.2c0.6,9.4,0.9,18.7,0.1,28.1c-0.1,0.6-0.9,0.6-1,0c-0.8-9.4-0.5-18.7,0.1-28.1
			C1260.6,445.7,1261.3,445.7,1261.4,446.2L1261.4,446.2z"/>
	</g>
	<g>
		<path fill="#B6AFA5" d="M1247.8,1.1c-0.3,5.5-0.5,10.9-0.7,16.4c-0.7,21.2-0.2,42.5,0.9,63.7c1.1,20.5,3,41,5.7,61.4
			c1.3,9.7,2.2,19.5,2.8,29.3c0.6,10.6,0,21.2,0.4,31.8c0,0.2-0.3,0.2-0.3,0c-1.2-20.1-2-40.8-5.8-60.7c-3.8-20.3-5-41.2-6.2-61.8
			c-1.5-26.7-1.5-53.4-0.3-80.1H1247.8z"/>
	</g>
	<g>
		<path fill="#B6AFA5" d="M1251.1,142.5c-2.5-8.6-4-19.2-3.2-28.2c0.1-1.5,2.5-2,2.9-0.4c1.1,4.3,1.9,8.6,2.4,13
			c0.6,4.3,1.6,9.4,0.1,13.6c-0.3,0.8-1.4,0.8-1.6,0c-1.3-3.7-0.9-7.9-1.2-11.7c-0.4-4.8-1.3-9.5-2.5-14.2c1-0.1,1.9-0.2,2.9-0.4
			c-0.8,9.3,3.3,19,1,28.2C1251.7,142.9,1251.2,142.8,1251.1,142.5L1251.1,142.5z"/>
	</g>
	<g>
		<path fill="#B6AFA5" d="M1247.5,97.3c0.2,7.4,2.6,15.9,0.1,23.2c-0.1,0.3-0.6,0.3-0.7,0c-2.5-7.2-0.2-15.8,0.1-23.2
			C1247,97,1247.5,97,1247.5,97.3L1247.5,97.3z"/>
	</g>
	<g>
		<path fill="#B6AFA5" d="M1249.7,95.3c0.3,8.2,4,16,1.1,24.1c-0.1,0.4-0.6,0.3-0.7-0.1c-1.1-8-1-16-1-24.1
			C1249,94.9,1249.7,94.9,1249.7,95.3L1249.7,95.3z"/>
	</g>
	<g>
		<path fill="#B6AFA5" d="M1248.8,774.4c-0.8,8.8-1.5,17.9-3.1,26.7h-4.2c1.6-9.4,2.8-18.9,3.6-28.5c1.6-17.9,4.1-35.7,5.5-53.6
			c1.4-18,1.7-36,0.8-54c-0.5-9.3-2-18.5-3.2-27.7c-1.3-9.6-1.8-19-2.2-28.7c0-0.3,0.5-0.3,0.5,0c1.6,18.9,6.8,37.4,8.4,56.4
			c1.5,18.6,0.8,37.3-0.6,55.9C1252.9,738.8,1250.4,756.5,1248.8,774.4z"/>
	</g>
	<g>
		<path fill="#B6AFA5" d="M1163.1,540.1c-3,11.2-6.5,22-14.1,31.2c-8.3,10-19.9,14.3-32.2,18.4c-11.8,3.9-27.9,10.3-23.9,24.9
			c1.2,4.5,3.4,8.8,4.7,13.3c1.8,6.4,1.8,13.4,2,19.9c0.3,15.8-1.5,31.6-2.3,47.4c-1.1,21.8,1.9,43.3,4.2,64.9
			c1.4,13.6,2.7,27.5,1.5,41.1h-3.4c1.3-21.5-2.3-43.4-4.6-64.6c-1.6-15.1-2.3-30-1.5-45.2c0.9-15.8,2.5-31.5,2-47.3
			c-0.2-6.4-0.8-12.6-2.8-18.7c-1.5-4.4-3.7-8.7-4.3-13.3c-1.4-10.7,7.5-17.6,16.7-21.9c12.5-5.8,26.4-7.6,36.9-17
			c10.1-9.1,14.1-21.5,17.4-34c2.6-9.8,8.2-18.6,12.8-27.6c5.6-11,7.7-22.2,8.2-34.4c0.5-11.5-0.5-23-1.6-34.4
			c-1.1-12-1.5-23.6-1.3-35.7c0-0.5,0.8-0.5,0.8,0c0.5,15.7,3.6,31.5,5.1,47.1c1.4,15.2,1.8,31.1-2.3,46
			C1177,514.3,1166.8,526,1163.1,540.1z"/>
	</g>
	<g>
		<path fill="#B6AFA5" d="M1046,34.1c2.6-7.5,3.3-14.9,4-22.7c0.3-3.4,0.7-6.9,1.2-10.3h3.8c-0.3,2.2-0.6,4.3-0.9,6.5
			c-0.8,6.6-0.9,13.2-2.3,19.7c-1.5,6.8-4.2,13.4-6.9,19.9c-5.3,12.6-11.4,26.3-9.3,40.2c1.8,12,11.6,21.2,20.7,28.9
			c18.8,15.8,38.6,30.4,48,53.3c6,14.5,9.5,30.3,13.9,45.2c4.6,15.8,9.3,31.5,14.3,47.2c10.3,31.8,23.6,62.7,34.2,94.4
			c5.1,15.3,9.5,30.9,12.5,46.8c1.4,7.4,2.5,14.8,3.2,22.3c0.4,4.3,0.7,8.5,0.8,12.8c0.1,3.8-1,7.3-1,11c0,0.4-0.6,0.4-0.6,0
			c0-3.1-0.7-7.5-1.2-10.6c-0.5-3.1-0.4-6.4-0.7-9.5c-0.7-8.4-2.1-16.8-3.7-25.1c-3.1-15.2-7.5-30.1-12.3-44.9
			c-9.8-29.9-22.3-58.8-32.3-88.6c-10.5-31-19.3-62.6-28.6-94c-7.5-25.2-29.3-41.2-49.2-57.7c-8.8-7.3-17.1-15.7-20.7-26.5
			c-4.2-12.5,0.5-26.7,5.2-38.5C1040.8,47.2,1043.7,40.8,1046,34.1z"/>
	</g>
	<g>
		<path fill="#B6AFA5" d="M1082.2,1.1c-2.7,12.7-5.9,25.3-8.3,38c-2.6,13.8-3.9,27.8-2.3,41.8c1.8,15.6,8.5,29.1,17,42.3
			c8.1,12.6,16.4,25.2,23.6,38.3c6.9,12.8,11.9,26.1,15.9,39.9c8.4,29.2,13.6,59.2,25,87.6c5.9,14.7,12.3,29.2,18,43.9
			c5.8,15,11.4,30,17.1,44.9c5.1,13.4,10,26.3,12.4,40.4c2.3,13.5,3,27.3,2.8,41.1c-0.4,25-3.4,50.2-12.6,73.7
			c-9,22.7-22.4,44.5-39.9,62.3c-5.9,6-12.5,11.2-19.6,15.9c-6.2,4-11.5,9.3-11.4,16.7c0,6.2,2.8,12.6,4.5,18.5
			c2.8,9.5,4,19.1,4.6,29c1.6,24.9-1.1,49.9-3.8,74.7c-1.4,12.2-2.8,24.4-3.9,36.7c-0.4,4.8-0.8,9.6-1.1,14.4h-3.8
			c0-2.3,0-4.5,0.2-6.6c0.6-8.4,1.5-16.8,2.4-25.2c1.7-16,3.7-32,5-48.1c1.3-15.9,1.8-31.9,0.8-47.8c-0.7-12-3.5-23-6.9-34.5
			c-2-6.6-3.3-13.2-0.2-19.7c4.1-8.6,14.9-13.1,22-19c20.1-16.5,34.6-39.6,44.8-62.6c10.5-23.8,13.9-49.1,14.7-74.8
			c0.5-14.5-0.2-29.1-2.5-43.4c-2.3-14.1-7.3-27.1-12.4-40.4c-11.5-29.7-23-59.4-35.1-88.8c-11.6-28.2-16.7-58.4-25-87.6
			c-6.3-22.3-16.6-42.3-29.1-62c-11.8-18.6-24.3-35.9-27.2-57.9c-3.6-27.8,4.6-54.5,10.9-81.4H1082.2z"/>
	</g>
	<g>
		<path fill="#B6AFA5" d="M1153.1,593.7c-2.7,2.9-5.7,5.4-8.8,7.9c-6.3,5.1-13,9.9-17.7,16.5c-5.8,8.2-4.4,16.9-2.1,26
			c2.8,11,5.5,22.1,7,33.3c1.6,12.5,0.5,24.7-0.7,37.2c-1.3,13.8-2.5,27.6-3.4,41.4c-0.8,13.7-2.9,27.3-4.3,41
			c-0.1,1.3-0.3,2.7-0.4,4.1h-4.2c1.9-15.7,4.2-31.3,5.1-47c1.6-26.9,7.4-54.3,3.4-81.2c-1.8-11.7-5.1-23.2-7.9-34.7
			c-1.8-7.2-0.2-14.8,3.7-21.1c4-6.4,10.4-11,16.4-15.6c3.5-2.6,6.9-5.3,10.2-8.1c3.1-2.6,7-5.7,9.2-9c0.2-0.3,0.7,0,0.5,0.3
			C1157.1,587.8,1155.7,590.9,1153.1,593.7z"/>
	</g>
	<g>
		<path fill="#B6AFA5" d="M1127.1,587.3c-5,2.3-10.6,3.6-15.5,6.1c-8.6,4.3-13.5,10.9-13.8,20.1c-0.3,8.3,2,16.6,2.9,24.8
			c1.5,13-0.5,26-2.2,38.9c-3.5,26.3-2.2,53.4-1.1,79.8c0.6,14.4,2.5,29.4,1.8,44h-4c0.7-15.9-1.3-32.1-1.9-48
			c-1-27.9-1.4-55.7,2.3-83.4c1.7-12.6,2.2-24.8,0.4-37.4c-1.1-7.6-3.1-15.6-1.7-23.3c1.3-7.1,5.5-12.4,11.7-16.4
			c4.7-3.1,10-4.5,15.3-6.3c3-1,5.8-2.3,8.6-3.7c2.8-1.3,6.3-2.6,8.7-4.3c0.3-0.3,0.8,0.2,0.5,0.5
			C1135,582.1,1132.1,585,1127.1,587.3z"/>
	</g>
	<g>
		<path fill="#B6AFA5" d="M1098,598.6c-0.1,3-0.8,6-1.5,9c-0.6,2.7-1,6.2-3.5,7.9c-0.5,0.4-1.5,0-1.6-0.6c-0.5-2.4,0.9-4.8,1.5-7.1
			c0.9-3.2,1.3-6.5,2.5-9.6C1095.9,597,1098.1,597.1,1098,598.6L1098,598.6z"/>
	</g>
	<g>
		<path fill="#B6AFA5" d="M1099.2,598.2c0.1-0.1,0.1-0.2,0.2-0.3c0.3-0.3,0.7-0.3,1-0.1c0.5,0.2,0.8,1.5,0.7,1.8
			c-0.4,1.2-1,2.3-1.6,3.4c-0.7,1.4-1.4,2.7-2.2,4.1c-0.6,1-1,2.2-2.2,2.7c-0.7,0.3-1.6-0.3-1.8-1c-0.5-1.7,1.7-4.4,2.6-5.8
			c0.6-1,1.2-2.1,1.8-3.1c0.2-0.4,0.5-0.8,0.8-1.3c0.1-0.2,0.3-0.4,0.5-0.5c0.7-0.4-0.1,0.4,0.2,0.8c0.3,0.1,0.6,0.3,1,0.4
			c0,0,0,0,0.1,0C1099.6,599.6,1098.7,598.9,1099.2,598.2L1099.2,598.2z"/>
	</g>
	<g>
		<path fill="#B6AFA5" d="M1104.1,596.8c-11.4-0.5-7.5,21.7-6.8,27.8c0.1,0.6-0.8,0.7-1.1,0.3c-4.3-5.5-3.7-13.9-2.6-20.4
			c1-5.5,4.4-10.6,10.6-8.2C1104.4,596.4,1104.4,596.9,1104.1,596.8L1104.1,596.8z"/>
	</g>
	<g>
		<path fill="#B6AFA5" d="M1095.1,602.6c0.1,4,0.7,8.5-1,12.3c-0.2,0.4-1,0.4-1.2,0c-1.7-3.8-1.3-9.2,1.2-12.6
			C1094.4,601.9,1095.1,602.1,1095.1,602.6L1095.1,602.6z"/>
	</g>
	<g>
		<path fill="#B6AFA5" d="M1098.3,801.1c0.1-3.6-0.1-7.1-0.4-10.7c-0.6-9.4-2.7-19.4-1.3-28.7c0.2-1.1,2.1-1.1,2.3,0
			c1.6,9.4,1.9,19.3,2.7,28.7c0.2,3,0.6,6.8,0.7,10.7H1098.3z"/>
	</g>
	<g>
		<path fill="#B6AFA5" d="M1097.2,755.8c0.9,2.8,1.1,5.8,1.5,8.7c0.4,2.8,1,6,0.1,8.8c-0.3,1-1.7,0.9-2,0c-1-2.7-0.8-5.9-1-8.8
			c-0.2-2.9-0.5-5.8,0.4-8.7C1096.3,755.3,1097.1,755.4,1097.2,755.8L1097.2,755.8z"/>
	</g>
	<g>
		<path fill="#B6AFA5" d="M1080.9,5.6c0.3-1.5,0.6-3,0.9-4.5h3.9c-0.3,1.2-0.5,2.4-0.8,3.6c-3.8,18.2-8.4,36.4-10.1,54.9
			c-1.6,17.7,0.6,35.3,8.2,51.6c7.1,15.1,19.6,27.1,24.5,43.3c0.1,0.4-0.4,0.5-0.6,0.1c-6.6-17.1-21.6-29.9-29-46.6
			c-6.8-15.3-8.1-32-6.8-48.3C1072.6,41.4,1077.2,23.5,1080.9,5.6z"/>
	</g>
	<g>
		<path fill="#B6AFA5" d="M1071.7,47.1c0.8,1,1.5,1.2,2,2.6c0.9,2.3,1,5.1,1,7.5c0.1,3.9,0.1,10.2-2.5,13.5
			c-0.6,0.7-1.9,0.3-1.6-0.7c1-3.8,0.7-7.9,0.8-11.8c0-0.1,0.1-0.1,0.1,0c0.1,3.9-0.2,8,0.8,11.8c-0.6,0.1-1.2,0.2-1.8,0.2
			c0.2-4,1.4-7.9,1.5-11.9c0.1-2.2,0-4.4-0.2-6.6c-0.1-0.8-0.2-3.6-0.7-4.4C1071,47,1071.5,46.8,1071.7,47.1L1071.7,47.1z"/>
	</g>
	<g>
		<path fill="#B6AFA5" d="M1077.1,29.1c1.3,6.9,0.3,13.5-1.1,20.3c-1.7,8.3-2.8,16.9-4.8,25.1c-0.2,0.8-1.5,0.8-1.7,0
			c-1.4-6.7,0.8-14,2.3-20.5c1.9-8.2,3.7-16.5,4.5-24.9C1076.3,28.8,1077,28.6,1077.1,29.1L1077.1,29.1z"/>
	</g>
	<g>
		<path fill="#B6AFA5" d="M1044.4,42.2c-0.9,7-2.5,13-4.7,19.7c-2.7,7.8-2.8,15.3-1.1,23.3c1.6,7.5,5,14.6,9.1,21.1
			c3.8,6,9.4,10.2,13.6,15.8c0.4,0.5-0.3,1.1-0.8,0.8c-6.4-3.7-10.8-7.7-15-13.6c-4.6-6.5-7.9-14-10-21.6
			c-1.8-6.7-2.1-13.6-0.8-20.4c1.6-8.7,7.6-16.4,8.9-25.2C1043.8,41.7,1044.5,41.8,1044.4,42.2L1044.4,42.2z"/>
	</g>
	<g>
		<path fill="#B6AFA5" d="M1169.7,372.9c1.9,3.7,4,6.9,5.3,10.9c1.6,4.9,2.3,10.1,3.2,15.2c1.7,9.7,4.5,19.2,5.8,29.1
			c1.4,10.5,2,21,1.5,31.6c-0.2,4.8-0.9,9.6-1.6,14.4c-0.7,4.8-0.6,9.8-2.3,14.5c-0.2,0.7-1.2,0.7-1.4,0c-2.6-7.9,0.6-17.1,1.3-25.1
			c0.8-10,0.5-20-0.4-29.9c-1-10.3-3.8-20.2-5.5-30.3c-0.8-4.5-1.4-9.1-2.3-13.6c-1-5.3-1.8-11.5-4.2-16.4
			C1168.9,372.8,1169.5,372.4,1169.7,372.9L1169.7,372.9z"/>
	</g>
	<g>
		<path fill="#B6AFA5" d="M992.8,180.9c-0.6,4.5,0,9.2-0.7,13.8c-0.9,5.8-2.3,11.4-4,17c-3,10.3-6,20.6-9.4,30.7
			c-3.2,9.8-6.8,19.5-9.1,29.6c-2,8.6-1,19.5-6.3,26.9c-0.5,0.7-1.5,0.2-1.3-0.5c1.5-8.5,1.9-17.1,3.5-25.6
			c1.9-10.1,5.5-19.9,8.9-29.6c7-20.5,12.9-41.3,17.9-62.3C992.3,180.5,992.8,180.6,992.8,180.9L992.8,180.9z"/>
	</g>
	<g>
		<path fill="#B6AFA5" d="M977.8,243.3c1.2,4.1,0.4,8.2-0.6,12.3c-1.1,4.8-2.5,10.3-4.9,14.7c-0.5,0.9-1.9,0.5-1.9-0.5
			c-0.1-4,1.6-7.9,2.8-11.7c1.5-4.9,2.1-10,3.8-14.8C977.1,242.9,977.7,242.8,977.8,243.3L977.8,243.3z"/>
	</g>
	<g>
		<path fill="#B6AFA5" d="M974,252.8c-2.6,12.5-7,24.7-9.1,37.4c-1.2,7.5-2.6,15.1-3.8,22.6c-0.6,3.8-1.2,7.5-1.8,11.3
			c-0.7,4.1-2.4,8.1-2.7,12.2c0,0.4-0.6,0.4-0.6,0c-0.1-7.1,0-13.6,1-20.6c1.2-8.2,2.5-16.3,3.9-24.5c1.3-7.8,3.6-15.2,5.7-22.9
			c1.4-5.4,2-12,6.7-15.8C973.6,252.1,974,252.4,974,252.8L974,252.8z"/>
	</g>
	<g>
		<path fill="#B6AFA5" d="M1042.2,273.3c-2.2,1.9-4.8,3.3-7,5.1c-3.2,2.6-5.5,6.2-7.1,9.9c-3.2,7.5-1.6,17.3-1.3,25.2
			c0.3,9,0.8,17.9,0.9,26.9c0,5.5,1.6,12.1-2.6,16.6c-0.2,0.3-0.7,0.1-0.7-0.3c0.1-17.6-1.3-35.2-1.5-52.8
			c-0.1-7.5,0.1-14.1,3.9-20.7c2.9-4.9,8.9-10.3,15.1-10.3C1042.2,272.8,1042.4,273.1,1042.2,273.3L1042.2,273.3z"/>
	</g>
	<g>
		<path fill="#B6AFA5" d="M1222.5,1.1h3c-1,13.9-2.1,27.9-2.8,41.9c-0.7,15-0.6,30.1,1,45c1.7,16,4.4,31.7,5.4,47.7
			c2,32.7,0.4,65.4,0.1,98.1c-0.2,16.4,0.3,32.7,0.9,49c0.6,16-0.6,32.1-2,48.1c-1.4,15.8-3.5,31.8-2.9,47.8c0.5,16,4,31.9,6.7,47.7
			c5.2,31.5,3.2,63.7,3.2,95.5c0,26.9-0.8,53.6-2.2,80.5c-0.4,8.8,0,17.3,0.8,26.1c1.4,14.9,1.1,30,0.2,44.9
			c-1.7,29.6-6.6,59-7.9,88.5c-0.6,12.9,0.1,26.1-0.2,39.2h-3.4c0.2-13.7-0.5-27.5,0.1-40.8c1.3-29.7,6.2-59.1,7.9-88.8
			c0.8-14.9,0.9-29.9-0.5-44.8c-0.8-8.5-1-16.9-0.6-25.4c1.4-27.2,2.1-54.2,2.1-81.4c0-32.8,1.6-65.7-3.9-98.2
			c-2.6-14.9-5.4-29.8-5.9-44.9c-0.5-15.9,1.8-32,3.2-47.8c1.4-16,2.4-32.1,1.8-48.1c-0.6-16.4-1-32.7-0.8-49
			c0.3-32.7,1.7-65.4-0.2-98.1c-0.9-15.4-3.5-30.5-5.2-45.8c-1.7-14.9-1.6-30-0.9-45C1219.9,29,1221.3,15,1222.5,1.1z"/>
	</g>
	<g>
		<path fill="#B6AFA5" d="M1147.3,6.8c0.2-1.9,0.5-3.8,0.7-5.7h3.5c-1.6,12.3-2.9,24.6-4.8,36.9c-4.7,30.1-12,59.3-9.4,90
			c1.4,16,6,31.2,10.8,46.6c4.7,15.1,9.6,30.1,14.5,45.1c9.8,29.9,19.3,59.9,26.4,90.6c7.1,30.9,11.6,62.6,16,93.9
			c4.4,31,7.3,62.1,7.6,93.4c0.2,22.8-7.1,43.3-17.7,63.5c-10.2,19.5-22.4,38.3-27.8,59.7c-4.1,16.2-1.8,31.1,1.8,47.1
			c4.4,19.3,6.2,39.1,6.6,58.8c0.4,24.9-1.8,49.9-5.9,74.5h-3.9c7.4-47,9.6-94.7-2.4-141.3c-11.7-45.3,22.8-82,38.4-121.7
			c10.2-26,7.6-53.9,5.6-81.1c-2.4-31.8-7.2-63.4-12.4-94.9c-5.2-31.4-11.5-62.3-20.5-92.9c-8.9-30.2-19.2-60-28.7-90
			c-5.9-18.6-11.2-36.9-12.4-56.4c-1.2-19.2,1.3-38.5,4.6-57.4C1141.4,45.8,1144.8,26.5,1147.3,6.8z"/>
	</g>
	<g>
		<path fill="#B6AFA5" d="M1201,722.3c4-16.2,7.2-32.6,8.7-49.1c1.2-12.5,1.1-25.1,1.6-37.6c0.6-12.6,1.3-25.1,2.1-37.7
			c1.7-27.2,3.5-54.4,4.5-81.7c1-26,1.6-51.9-2.8-77.6c-1.9-10.9-4.1-21.8-5.4-32.8c-1.4-12.1-1.6-24.2-1.4-36.3
			c0.4-28.5-4-57-7.5-85.2c-3.9-32.2-8.1-64.4-10.5-96.7c-2.9-38.5-2-77.1-1.5-115.6c0.2-19.9,0.6-39.8,0.8-59.7
			c0-3.7,0.1-7.4,0.2-11.2h3.3c0,0.4,0,0.8,0,1.2c0,16.6-0.3,33.1-0.5,49.7c-0.4,33-1.2,66-0.5,98.9c1.4,64.7,13.3,128.6,19,193
			c2.1,23.9-0.1,47.7,3.5,71.6c1.6,10.7,4,21.3,5.5,32.1c1.8,13.1,2.2,26.2,2.1,39.5c-0.4,52.3-5.7,104.5-7.8,156.8
			c-0.7,16.4-1.2,32.7-3.8,49c-3.1,19.3-8.2,38.3-13.5,57.1c-2.6,9.2-5.3,18.3-7,27.7c-1.4,7.8-2.1,15.7-2.7,23.5h-3.6
			c0.8-10.6,1.9-21.3,4.2-31.8C1191.6,753.5,1197.1,738,1201,722.3z"/>
	</g>
	<g>
		<path fill="#B6AFA5" d="M1260.4,454.8c0.9,5.5,1.4,10.9,1.7,16.5c0.3,5.3,1.3,11.5-0.5,16.6c-0.3,0.8-1.7,1-1.9,0
			c-1.2-5.3-0.5-11.2-0.7-16.6c-0.2-5.6-0.3-11,0.5-16.5C1259.5,454.3,1260.3,454.3,1260.4,454.8L1260.4,454.8z"/>
	</g>
	<g>
		<path fill="#B6AFA5" d="M1259.8,450.1c1.5,5.5,0.8,11.3,0.5,16.9c-0.4,6.1,0.4,12.8-0.9,18.9c-0.2,0.9-1.4,0.7-1.7,0
			c-2.2-5.2-1.1-11.6-0.7-17c0.5-6.2,0.6-12.6,1.7-18.8C1258.7,449.5,1259.6,449.6,1259.8,450.1L1259.8,450.1z"/>
	</g>
	<g>
		<path fill="#B6AFA5" d="M1260.4,453.6c-0.6,7.6-0.3,15.5-1.8,22.9c-0.1,0.7-1.4,0.7-1.5,0c-1.3-7.6,1.6-15.4,2.4-22.9
			C1259.5,453,1260.4,452.9,1260.4,453.6L1260.4,453.6z"/>
	</g>
	<g>
		<path fill="#B6AFA5" d="M945.1,258.9c5.2-13.6,12.1-26.6,17.7-40c4.3-10.3,7.1-20.7,9.4-31.5c2.1-10,5.1-19.7,10-28.7
			c5.2-9.7,13.6-17.3,20.7-25.7c8.1-9.6,12.6-19.6,14.2-31.8c1.4-10.7,1.1-21.6,0.8-32.4c-0.3-11.3-0.1-22.6,0-33.9
			c0-11.2,0.3-22.5,0.7-33.7h3.7c-0.5,16.8-1,33.6-0.9,50.4c0.2,26.1,5.1,55.7-11.3,78.5c-8.3,11.5-19.5,20.6-26,33.4
			c-6.5,12.7-7.7,26.7-11.6,40.1c-3.9,13.5-10.2,26.3-16.1,39.1c-6.5,14-11.9,28.1-15.1,43.2c-3.3,15.6-4.8,31.6-5.2,47.5
			c-0.5,15.7,0.9,31.2,1.5,46.8c0.6,15.4,0.3,30.9,1.6,46.3c1.3,15.1,5.5,29.3,10.5,43.6c8.6,24.7,19.7,48.9,35.8,70
			c8.3,10.9,18.3,21.1,29.8,29c9,6.2,18.4,11.9,27.1,18.4c12.8,9.6,22.6,20.9,27.8,35.7c3.5,9.8,4.5,20.4,5.7,30.7
			c1.3,12.1,2,24.3,2.5,36.5c0.5,11.7,0.9,23.4,1.4,35c0.4,10.7,0.5,20.5-2.3,30.9c-4,15.3-11.4,29.6-15.3,44.7h-4
			c4.9-19.9,16-38.3,17.9-58.9c0.6-6.7-0.2-13.6-0.4-20.4c-0.3-8-0.6-16-0.9-24c-0.6-15.3-1.4-30.5-3-45.7
			c-1.4-13.1-3.4-26.2-9.8-38.1c-4.8-8.9-12.2-16.1-20.3-22.3c-9-7-18.9-12.8-28.3-19.3c-10.7-7.3-19.9-16.5-28-26.3
			c-16.3-19.8-27.5-43-36.4-66.5c-4.9-13-9.6-26.2-12-39.9c-2.6-14.7-2.8-29.8-3-44.7c-0.3-15.6-1.6-31.2-1.9-46.8
			c-0.3-15.6,0.5-31.2,2.6-46.6C936.5,287.1,939.8,272.7,945.1,258.9z"/>
	</g>
	<g>
		<path fill="#B6AFA5" d="M936.1,241.7c5-16,10.1-32,15.1-48c3.3-10.3,6.6-20.5,11.2-30.4c4.4-9.3,9.6-18.3,14.5-27.4
			c5.2-9.6,10-19.4,13.5-29.7c3.4-10,5.1-20.6,6.8-31c4-24.5,6-49.3,6.6-74.2h2.8c-0.2,8.7-0.5,17.4-1,26.1
			c-1.6,27.5-3.8,56.9-13.1,83.2c-9.2,26-26.6,48.4-34.9,74.7c-10,31.8-20.9,63.5-29.9,95.5c-8.1,28.5-7.3,58.1-3.9,87.2
			c1.7,14.6,4,29.1,5.9,43.6c1.9,14.6,3,29.2,4.8,43.8c3.1,25.7,8.5,51.5,21.5,74.4c6.7,11.7,15.5,22.1,25.8,31.1
			c11.4,9.9,22.2,20.5,32.7,31.4c7.9,8.1,15.6,16.3,23.5,24.5c6.8,7,13.4,13.6,17.3,22.5c7.4,16.8,7.1,35.6,6,53.4
			c-0.5,8.9-1.3,17.7-1.7,26.6c-0.4,10.2,0.1,20.4,0.2,30.6c0.2,17.4-0.5,35-6,51.5h-3.4c7.8-23.6,5.4-49.8,5.2-74.1
			c-0.1-23.8,4.9-47.7,0.8-71.3c-2.2-12.7-8-23.1-17.2-32.5c-10.4-10.7-20.6-21.6-31.1-32.3c-19.4-19.9-42.5-36.5-56.2-60.8
			c-12.3-21.6-17.3-46.2-20.6-70.3c-1.9-14.3-2.9-28.7-4.7-43c-1.8-14.7-4.1-29.2-6-43.9c-3.6-28.2-4.8-56.4,1.2-84.4
			C925.4,272.7,931.2,257.2,936.1,241.7z"/>
	</g>
	<g>
		<path fill="#B6AFA5" d="M908.2,290.8c4.4-14.5,8.5-29.1,12.4-43.7c3.9-14.6,8.3-29.2,14.4-43.1c5.7-13.2,12.8-25.8,18.4-39.1
			c7.3-17.3,13.9-35,18.4-53.1c4.6-18.5,5.9-37.7,5.9-56.7c0-17.9-1.3-35.9-3.7-53.9h3.2c4.9,32.6,5.8,65.7,0.7,98
			c-4.2,26.5-14.2,52.3-25.1,76.9c-6.1,13.7-13.7,26.7-18.9,40.7c-5.4,14.3-9.1,29.1-13,43.8c-7.6,28.7-19.2,57.1-19.7,87
			c-0.3,15.5,4.6,30.5,8.9,45.3c4.4,14.9,9,29.8,12.2,45c3.3,15.4,5.5,30.9,8.9,46.3c3.4,15.2,7.4,30.4,12.5,45.2
			c8.9,26.3,27.6,45.9,45.7,66.8c11.9,13.8,21.6,27.6,26.6,45c5,17.2,5.9,35.2,7.5,52.9c1.8,19.8,6.1,39.3,8.3,59.1
			c1.8,16,2.5,32,2,48h-3.4c0.5-25.2-1.9-50.6-6.2-75.4c-2.2-12.6-3.8-25.1-4.9-37.9c-1.2-13.3-2.3-26.7-5.2-39.8
			c-2.9-12.9-8-25.3-16.2-35.9c-8.3-10.8-17.6-20.9-26.6-31.3c-8.3-9.6-16.1-19.6-22.3-30.6c-6.9-12.3-10.9-26.1-14.7-39.5
			c-8.6-30.3-11.9-61.6-20.2-91.9c-4.1-15.1-9-29.9-12.8-45.1c-3.5-13.9-4.1-27.6-2.3-41.8C900.4,317.9,904.1,304.3,908.2,290.8z"/>
	</g>
	<g>
		<path fill="#B6AFA5" d="M898.1,278.8c4.6-15.2,8.5-30.7,12.7-46c8.6-31.2,17.1-62.5,24.5-94c3.6-15.3,6.8-30.6,8.6-46.3
			c1.7-15.1,2.4-30.4,2.7-45.6c0.3-15.3,0.1-30.6-0.1-45.9h2.9c0.4,15.9,0.8,31.8,0.5,47.8c-0.2,15.8-1.1,31.7-3,47.4
			c-1.8,15.3-5.1,30.2-8.6,45.2c-7.4,31.5-15.9,62.8-24.5,94.1c-4.2,15.3-8.1,30.6-12.6,45.8c-4.3,14.5-8.7,28.9-11.9,43.6
			c-3.2,15.1-4.5,30.3-2.6,45.6c2,15.7,7.1,30.9,12.1,45.9c5,15,10,30,13.8,45.3c3.8,15.4,6,31.1,8.9,46.7c1.4,7.4,3,14.8,4.9,22.2
			c2,7.8,6.3,15.3,10.1,22.5c6.9,13.1,15.1,25.7,22.9,38.4c7.5,12.3,15.1,24.7,18.8,38.6c3.5,13.4,3.2,27.5,2,41.2
			c-1.3,14.3-3.9,28.5-5.2,42.8c-1,10.8,0.1,21.4,1,32.2c1,11.4,1.9,22.8,1.3,34.3c-0.4,6.9-1.3,14.1-4.2,20.6h-4
			c3.7-7.5,4.4-16.4,4.6-24.5c0.3-11.4-0.8-22.9-1.8-34.3c-1-11.2-1.3-22-0.2-33.3c1.5-14.3,4-28.5,5.1-42.9
			c1.1-14.6,0.2-29.3-4.8-43.3c-5.1-14.2-14.5-27.3-22.4-40.2c-7.8-12.7-15.6-25.4-21.9-38.9c-6.5-13.8-8.9-28.8-11.5-43.6
			c-2.8-15.6-5.3-31.3-9.6-46.6c-4.2-15.1-9.4-30-14.3-45c-4.6-14.2-8.5-28.6-9.9-43.4c-1.4-14.4,0.7-28.8,3.7-42.9
			C889.3,307.6,893.8,293.2,898.1,278.8z"/>
	</g>
	<g>
		<path fill="#B6AFA5" d="M891.3,186c5.4-32.4,12-64.7,14.7-97.4c2.4-29.1,2.4-58.3,2.3-87.5h2.8c0.3,16,0.5,31.9,0.3,47.9
			c-0.5,31.3-3.9,62-9,92.9c-10.8,65.2-22.8,130.6-27.2,196.5c-1.1,16.2-1.5,32.7,0.4,48.8c1.8,15.4,6.4,30.5,10.6,45.4
			c4.2,14.9,6.7,30,10,45.1c3.2,14.9,7.9,29.5,13.2,43.9c5.4,14.6,12.1,28.9,16.3,43.9c3.9,14.1,5.5,28.8,5.8,43.4
			c0.3,15.5-1.7,30.9-3.1,46.4c-1.4,15.9-2.2,31.9-2.2,47.8c0,23.8,3.1,46.8,6.7,70.2c1.4,9.3,2.1,18.5,2.1,27.7h-3.4
			c0-3.5-0.1-7.1-0.3-10.6c-1-15.8-4.8-31.4-6.6-47.1c-3.6-31.8-2.4-63.9,0.8-95.6c3.1-31.2,3.8-61.7-6.6-91.9
			c-5-14.7-11.6-28.9-16.7-43.7c-5-14.6-9-29.4-11.7-44.5c-5.2-29.4-17-57.8-19.2-87.7c-2.4-32.6,2.2-65.5,6-97.8
			C880.9,250,886,217.9,891.3,186z"/>
	</g>
</g>
<g>
	<path fill="#B6AFA5" d="M870.3,73c1.9-23.9,3.5-47.9,4.6-71.9h3c-1.8,48.1-6,96-9.9,144c-5.3,65.1-8.3,130.2-7.8,195.6
		c0.1,16.4,0.9,32.8,3.3,49c2.3,15.4,0.6,31.4,0,46.9c-1.2,32.6,6.6,64.8,13.2,96.7c6.3,30.6,12.8,61.2,16.2,92.3
		c3.6,32.2,3.5,65,3.7,97.4c0.1,18.6,0.4,37.3,0.1,55.9c-0.1,7.3-0.4,14.9-1.7,22.3h-3.7c0.8-4.9,1.1-9.8,1.4-14.6
		c0.7-12.8,0.3-25.7,0.3-38.5c0-32.6-0.4-65.2-1.9-97.8c-1.4-32.1-7.4-63.9-13.8-95.4c-6.3-30.8-14.2-61.8-17.2-93.1
		c-1.5-16.1,0.2-32.3,0.5-48.3c0.4-16.1-2.4-31.8-3.4-47.9c-2.1-32.2-1-64.9-0.3-97.2C858.5,203.1,865.3,138.1,870.3,73z"/>
</g>
<g>
	<path fill="#B6AFA5" d="M847.8,301c0.8-16.5,0.9-33,0.6-49.5c-0.4-15.9-1.8-31.6-0.2-47.5c1.6-15.5,4.9-30.9,7-46.4
		c4.4-32.3,1.9-64.6-2.1-96.8c-2.5-19.9-5.6-39.8-6.8-59.8h3.7c0.4,7.2,0.9,14.4,1.7,21.6c3.9,32.2,9.5,64.3,9.7,96.8
		c0.1,15.4-1.3,30.9-3.6,46.2c-2.4,15.8-5.6,31.5-6.6,47.5c-1,16,0.9,32.2,1.1,48.3c0.2,16.4,0.2,33.1-1.3,49.4
		c-2.9,31.4-7.1,62.6-8.2,94.1c-1.1,31.5,2.7,62.9,5.4,94.2c1.4,16.3,3.6,32.4,7.7,48.3c3.9,15,7,30.3,9.8,45.5
		c5.5,31,1.8,62.5,1,93.7c-1,38.1-1,76.2-1.5,114.3h-3.1c-0.2-24.9-0.1-49.9,0.1-74.8c0.4-32.8,2.2-65.5,2.9-98.2
		c0.6-31.6-9.7-62.2-15.8-92.9c-3-14.9-4.3-30-5.5-45.1c-1.3-15.6-3.1-31.2-4.2-46.8c-2.1-31.5,0.6-63.1,3.9-94.5
		C844.9,332.9,847,317,847.8,301z"/>
</g>
<path fill="#B6AFA5" d="M808.6,506.2c1,16,6.9,17.3,22.2,33.8c20.4,22.1,16.6,34,13,64.4c-2,16.1-4.7,32-5.7,48.3c-1,16-1,32-0.7,48
	c0.4,23.4,2,46.8,2.7,70.2c0.3,10.1,0.3,20.2-0.4,30.2H836c1.2-18.3,0.2-36.8-0.8-55c-1.7-31.7-2.7-63.6-0.8-95.3
	c1-16.2,3.9-32.1,5.8-48.2c1.8-15-0.2-30.1-3.1-44.9c-2.8-14.8-29.1-28-30.1-43"/>
<g>
	<path fill="#B6AFA5" d="M849,9.1c-0.2,4.9,0.4,10,0.5,15c0.1,5.6,0.4,11.3,0.9,16.9c0.9,10.7,2.4,21.4,3.8,32
		c2.9,21.6,4.5,42.9,3.1,64.7c-1.4,22.2-4.7,44.3-6.6,66.5c-0.9,10.8-1.4,21.6-0.5,32.4c0.8,10.7,2.2,21.1,1.7,31.8
		c-0.1,1.2-1.9,1.2-2,0c-0.7-10.6-2.1-21.2-3-31.8c-0.9-10.9-0.4-21.6,0.5-32.4c1.8-22.2,5.3-44.2,6.8-66.5
		c1.5-21.8-0.3-43.1-2.9-64.7c-1.3-10.7-2.6-21.3-3.5-32c-0.4-5-0.6-10-0.7-15c-0.1-5.8,0.8-11.1,1.4-16.8
		C848.3,8.7,849,8.7,849,9.1L849,9.1z"/>
</g>
<g>
	<path fill="#B6AFA5" d="M849.6,33.7c5.6,7.3,3,19,4.6,27.5c1.1,6.2,2.4,12.3,3.4,18.5c0.9,5.6,2.1,11.6,0.7,17.1
		c-0.1,0.6-1,0.6-1.2,0c-1.5-5.3-1.6-11-2.4-16.4c-1-6.2-2.3-12.4-3.4-18.5c-1.7-9.3-1.1-18.8-2.4-28.1
		C848.9,33.4,849.4,33.4,849.6,33.7L849.6,33.7z"/>
</g>
<g>
	<path fill="#B6AFA5" d="M855.3,63.8c2,8.6,3.7,17.4,2.9,26.2c-0.1,0.6-0.9,0.6-1,0c-0.8-8.7-0.7-17.4-2.7-26
		C854.4,63.5,855.2,63.3,855.3,63.8L855.3,63.8z"/>
</g>
</svg>
